<svg width="165" height="60" viewBox="0 0 165 60" fill="none" xmlns="http://www.w3.org/2000/svg">
<path d="M29.1991 25.209L23.222 15.3718L19.9329 9.96077L14.7835 1.48743L14.636 1.12585L14.5996 1.18453L14.5647 1.12585L14.4172 1.48585L9.26785 9.96077L5.97875 15.3718L0 25.209L6.40218 29.1007L14.6012 15.6112L22.797 29.1007L29.1991 25.209Z" fill="#414141"/>
<path d="M156.738 0.908691V28.5981H164.23V17.2892V11.0662V0.908691H156.738Z" fill="#414141"/>
<path d="M35.4173 0.999146V10.5096H32.696H30.7834H27.6624V17.9934H35.4173V42.0686H43.3975V25.2948V16.0634V0.999146H35.4173Z" fill="#414141"/>
<path d="M121.611 52.7144H112.624H107.681H106.116V52.5733V48.5451V41.9701H98.6208V59.8968H106.116V59.8699H121.611V52.7144Z" fill="#414141"/>
<path d="M85.2154 0.999146V10.8363H84.0355H82.123H81.717V0.999146H74.7233V42.0686H81.717V25.2948V17.9934H85.2154V42.0686H92.2091V25.2948V16.0634V0.999146H85.2154Z" fill="#414141"/>
<path d="M121.605 16.7484V13.9652V9.0379V0.999098H121.486V0.926147H112.001H106.779H98.2592V0.999098H98.2069V23.4773H103.359V23.49H121.611V16.7484H121.605V16.7484ZM110.055 16.7484H105.197V14.2982V9.24406V7.66929H114.611V16.7484H114.158H110.055V16.7484Z" fill="#414141"/>
<path d="M164.198 53.2585V50.4752V45.5495V35.0479H157.206V41.431H154.596H150.373H148.795V35.0479H141.799V59.9873H146.952V60H164.206V53.2585H164.198ZM153.646 53.2585H148.792V50.8067V48.1741H157.205V53.2585H156.749H153.646Z" fill="#414141"/>
<path d="M123.045 27.009H112.275H106.35H96.6749V33.7506H106.366V41.4833H113.859V36.0009V33.7506H123.045V27.009Z" fill="#414141"/>
<path d="M153.07 23.6692L144.548 8.12446H152.631V0.967407H142.132H136.355H126.926V8.12446H135.117L126.367 24.0435L132.771 27.9336L139.828 14.709L146.665 27.5594L153.07 23.6692Z" fill="#414141"/>
<path d="M71.312 7.8374H63.0607V5.08432V3.15272V0H55.5675V7.8374H47.4827V14.9944H49.5887C48.9766 16.3424 48.6277 17.8348 48.6277 19.4111C48.6277 25.3217 53.4186 30.1126 59.3292 30.1126C65.2397 30.1126 70.0307 25.3217 70.0307 19.4111C70.0307 17.8348 69.6802 16.3424 69.0696 14.9944H71.3152V7.8374H71.312ZM59.3276 23.3266C57.1676 23.3266 55.4136 21.5727 55.4136 19.4111C55.4136 17.2496 57.166 15.4972 59.3276 15.4972C61.4891 15.4972 63.2431 17.2496 63.2431 19.4111C63.2431 21.5727 61.4891 23.3266 59.3276 23.3266Z" fill="#414141"/>
</svg>
