<svg width="294" height="267" viewBox="0 0 294 267" fill="none" xmlns="http://www.w3.org/2000/svg">
<g clip-path="url(#clip0_94_302)">
<rect width="294" height="267" fill="#B9B9B9"/>
<g clip-path="url(#clip1_94_302)">
<path d="M4.2549 245.144C3.01047 245.212 1.71032 245.398 0.410175 245.652V266.88H184.92C184.493 266.473 184.103 266.084 183.861 265.728C181.948 261.882 187.632 266.931 180.722 260.628C180.852 258.612 181.818 261.865 171.268 253.462C169.207 252.53 169.652 253.649 169.522 253.665C172.828 255.97 174.816 258.155 177.398 260.51C176.376 260.29 173.98 257.986 173.85 258.697C173.757 259.239 171.38 257.528 171.12 257.901C170.971 258.104 170.692 258.274 169.355 257.41C168.018 256.207 167.851 256.512 170.21 256.088C168.668 254.106 163.653 251.158 158.991 246.855C156.187 245.466 155.146 245.008 154.924 244.907C152.695 244.754 152.843 244.432 155.499 246.431C151.729 244.924 149.277 243.128 146.417 241.298C146.528 241.044 146.621 240.807 146.751 240.502C150.336 243.077 156.762 245.381 151.116 241.603C147.94 240.654 150.113 240.383 143.389 237.368C143.371 237.402 143.278 237.486 143.092 237.69C145.321 239.146 143.965 237.808 136.629 235.589C137.149 236.216 139.508 237.402 138.876 237.74C139.099 237.876 139.266 237.994 139.415 238.079C138.244 237.418 134.771 235.606 128.215 232.776C126.06 231.862 128.883 233.031 117.665 230.066C112 226.999 112.966 227.118 103.178 225.644C104.961 227.287 104.924 228.05 110.477 228.422C103.679 226.508 108.843 226.915 109.846 227.677C110.886 228.456 108.787 228.118 113.969 229.032C115.009 230.015 112.149 230.218 112.056 230.184C113.913 230.811 113.616 230.896 111.963 230.659C112.093 230.659 124.221 236.521 107.951 231.624C107.895 230.93 107.877 230.676 107.877 230.608C104.998 230.184 104.088 230.269 102.658 229.219C102.342 228.982 102.026 228.439 102.156 228.49C99.0171 227.44 92.3864 225.915 90.3247 226.508C91.142 226.881 92.0149 227.287 92.8879 227.677C89.4146 228.338 95.6182 229.625 90.8076 229.541C87.3901 227.287 88.1888 227.711 84.214 226.271C79.5706 225.627 74.5744 225.949 73.4228 225.983C74.4258 226.593 83.5268 227.135 76.6917 227.796C69.1509 225.797 67.3492 227.525 62.9473 227.609C63.0773 227.66 63.3559 227.846 64.1732 228.355C52.9548 229.456 64.3218 227.728 43.1851 230.134C40.0276 230.489 40.3619 230.286 35.7742 229.71C31.4652 230.218 26.766 231.269 31.1308 231.421C33.6383 231.506 36.7958 230.947 24.0543 234.521C18.055 234.03 9.71552 237.876 15.7334 234.877C14.136 234.166 14.266 232.793 9.0283 233.369C-1.2243 237.893 0.410176 236.47 10.0313 236.283C5.09071 238.808 6.09368 236.944 0.781646 238.723C0.633058 238.723 0.521616 238.706 0.391602 238.689V243.467C0.948808 243.179 1.50601 242.908 2.08179 242.62C9.19546 240.705 2.73187 243.501 5.18358 243.501C6.87377 243.501 4.66352 244.551 4.21775 245.195L4.2549 245.144ZM181.669 263.898C181.335 264.373 181.465 264.339 181.019 263.983C181.354 263.509 181.224 263.542 181.669 263.898ZM173.72 260.595C173.46 260.493 173.181 260.391 172.921 260.307C175.113 260.205 179.329 264.305 173.72 260.595ZM151.933 245.296C156.781 247.922 154.143 247.55 156.279 249.227C155.815 249.04 155.462 248.905 155.184 248.803C155.444 248.38 155.778 248.6 151.692 246.482C150.466 245.364 150.503 244.991 151.952 245.296H151.933ZM130.815 238.943C130.759 238.638 130.704 238.35 130.666 238.113C132.097 238.232 133.415 238.621 135.143 239.57C135.421 240.4 132.059 238.96 130.815 238.943ZM144.021 243.501C143.872 243.365 143.538 243.145 143.594 243.128C144.244 242.908 144.559 243.28 144.82 243.484C144.559 243.484 144.299 243.484 144.039 243.484L144.021 243.501ZM145.042 242.094C142.479 240.976 142.962 241.417 142.758 240.57C144.504 241.434 143.965 241.112 145.042 242.094ZM122.884 233.183C134.01 235.267 145.897 241.942 137.093 239.672C131.372 237.673 135.496 237.147 127.546 236.775C127.769 237.808 128.363 237.706 124.314 236.334C125.484 235.013 126.227 235.623 120.6 233.251C118.018 231.184 117.684 231.353 122.884 233.183ZM104.478 233.624C104.664 233.708 105.035 233.861 104.979 233.895C104.496 234.233 104.069 234.064 103.865 234.013C104.069 233.895 104.255 233.759 104.459 233.64L104.478 233.624ZM76.9518 232.743C73.6643 232.438 73.6643 232.472 74.0914 231.455C75.2059 231.946 75.9674 232.285 76.9518 232.743ZM72.0669 230.134C74.7601 230.235 74.4443 230.201 74.4258 230.371C71.7883 230.201 72.0484 230.286 72.0669 230.134ZM63.746 229.049C64.8604 229.32 63.8017 229.303 63.1516 229.354C63.3559 229.253 63.5417 229.151 63.746 229.049ZM55.6665 229.303C57.2638 229.863 55.0907 230.167 53.2891 229.93C52.899 229.879 55.555 229.32 55.6665 229.303ZM37.5758 232.167C37.5016 232.963 33.2296 233.115 32.5424 233.725C31.5394 234.623 29.6449 234.471 28.0662 234.725C29.0134 233.861 34.6412 231.828 37.5758 232.15V232.167ZM11.8886 241.705C10.96 242.179 10.9414 242.01 10.7928 241.908C11.0157 241.874 11.35 241.789 11.8886 241.705ZM9.58551 241.264C10.0313 241.671 10.1613 241.857 10.347 241.925C9.12117 242.128 8.30393 242.179 9.58551 241.264ZM7.22667 249.278C6.91092 249.362 5.5179 249.769 5.57362 249.566C9.41835 248.464 7.31954 249.244 7.22667 249.278Z" fill="#939393"/>
<path d="M27.7688 234.81C12.78 236.826 23.2369 237.317 27.7688 234.81V234.81Z" fill="#939393"/>
<path d="M62.8546 229.422C55.388 230.253 62.9474 231.337 62.8546 229.422V229.422Z" fill="#939393"/>
<path d="M17.5348 239.672C17.089 239.943 17.0333 239.909 17.7763 239.74C17.702 239.723 17.6091 239.689 17.5348 239.672Z" fill="#939393"/>
<path d="M35.403 234.115C34.9201 234.318 34.8829 234.284 35.663 234.183C35.5702 234.166 35.4959 234.132 35.403 234.115Z" fill="#939393"/>
<path d="M14.4521 237.554C13.9878 237.825 13.9321 237.791 14.7122 237.622C14.6193 237.605 14.545 237.588 14.4521 237.554Z" fill="#939393"/>
<path d="M94.5781 232.234C94.1324 232.302 94.1138 232.251 94.7267 232.37C94.671 232.319 94.6153 232.268 94.5781 232.234Z" fill="#939393"/>
<path d="M41.1419 231.591C41.6805 231.354 41.7177 231.404 40.8447 231.489C40.9376 231.523 41.0305 231.557 41.1419 231.591Z" fill="#939393"/>
<path d="M74.4072 228.863C73.9428 228.982 73.9057 228.931 74.5929 228.999C74.5372 228.948 74.4815 228.914 74.4072 228.863Z" fill="#939393"/>
<path d="M84.6417 228.236C84.1959 228.338 84.1773 228.287 84.8088 228.372C84.7531 228.321 84.6974 228.287 84.6417 228.236Z" fill="#939393"/>
<path d="M101.246 230.32C100.688 230.134 100.781 230.134 100.67 230.252C100.856 230.269 101.06 230.303 101.246 230.32Z" fill="#939393"/>
<path d="M165.864 254.987C165.511 254.665 165.585 254.699 165.437 254.767C165.585 254.834 165.715 254.919 165.864 254.987Z" fill="#939393"/>
<path d="M126.877 233.014C127.36 233.014 127.397 233.081 126.729 232.827C126.784 232.895 126.84 232.946 126.877 233.014Z" fill="#939393"/>
<path d="M196.194 266.863H197.643C196.751 266.101 195.934 265.237 195.284 263.475C188.189 256.783 186.499 257.359 190.808 262.696C193.909 266.541 193.092 264.288 196.175 266.863H196.194Z" fill="#939393"/>
<path d="M59.2693 217.36C44.9677 216.75 42.6645 218.258 54.3659 214.327C63.374 215.852 64.1356 215.818 59.2693 217.36Z" fill="#939393"/>
<path d="M46.0459 228.423C46.6588 227.525 42.7026 227.609 41.2725 227C43.1298 226.085 45.2101 225.102 47.1974 224.204C44.3557 222.747 49.4634 221.9 50.3178 222.459C51.135 222.984 51.6365 223.56 52.2494 224.136C49.3334 225.322 47.5317 226.542 47.6432 227.728C47.6618 227.965 45.563 228.355 46.0459 228.406V228.423Z" fill="#939393"/>
<path d="M12.8547 229.388C12.9847 229.05 12.6875 228.745 13.3005 228.338C14.7306 227.423 16.8294 226.491 19.8383 225.746C23.7016 225.339 22.9587 225.255 23.7759 228.423C22.1786 229.27 20.3956 229.659 17.9438 229.761C18.111 229.49 18.2967 229.151 18.5753 228.66C17.721 228.304 11.7403 229.439 12.8547 229.388Z" fill="#939393"/>
<path d="M53.2705 228.152C53.3448 227.593 54.4778 226.119 55.3507 225.949C58.1182 227.999 56.038 227.643 63.5603 226.305C66.9221 227.084 58.8983 228.507 53.2891 228.152H53.2705Z" fill="#939393"/>
<path d="M85.458 221.9C79.7373 220.037 78.6601 220.765 85.6252 219.189C87.6497 219.308 88.7084 219.715 89.8971 220.308C89.0798 220.443 88.114 220.596 87.111 220.782C86.461 221.07 89.0613 221.798 85.458 221.9Z" fill="#939393"/>
<path d="M34.3813 226.339C34.177 227.338 30.518 228.016 27.4348 228.863C23.5158 228.524 28.8278 225.051 34.3813 226.339Z" fill="#939393"/>
<path d="M180.871 259.951C181.521 258.833 181.447 258.85 181.521 258.901C183.323 259.985 184.567 260.578 185.979 262.306C187.613 264.305 186.815 263.763 185.013 263.339C185.125 263.407 180.314 259.29 180.853 259.951H180.871Z" fill="#939393"/>
<path d="M79.1063 223.188C77.7504 223.425 73.5899 222.29 75.2616 223.628C66.1419 221.849 64.6561 222.391 72.587 221.798C80.6479 222.645 79.5706 222.459 79.0877 223.188H79.1063Z" fill="#939393"/>
<path d="M164.898 250.209C167.164 251.463 166.291 250.108 168.204 250.989C168.204 251.463 168.037 251.836 168.204 252.378C168.26 252.564 169.857 254.089 169.374 253.581C171.064 256.19 171.454 255.8 165.901 252.31C166.384 252.751 164.173 250.362 164.954 250.243H164.879L164.898 250.209Z" fill="#939393"/>
<path d="M126.524 231.286C129.608 231.574 132.282 232.692 133.341 233.505C132.449 233.691 132.505 233.59 126.524 231.286Z" fill="#939393"/>
<path d="M6.31656 230.676C6.2237 230.676 6.11226 230.676 6.01939 230.693C2.58328 231.794 0.930234 232.336 0.391602 232.641V232.963C0.744499 233.064 1.50601 233.132 2.41612 233.268C2.50899 233.081 6.68804 231.828 6.29799 230.659L6.31656 230.676Z" fill="#939393"/>
<path d="M180.722 255.597C176.71 252.513 178.233 254.089 175.855 250.802C178.493 252.547 178.511 252.564 180.722 255.597Z" fill="#939393"/>
<path d="M36.9263 228.728C33.3416 229.49 34.6974 229.541 31.6514 228.66C34.8646 227.881 34.9017 227.898 36.9263 228.728Z" fill="#939393"/>
<path d="M69.838 224.018C73.2555 224.933 67.572 224.95 67.3491 224.442C67.1819 224.069 68.4264 224.001 69.838 224.018Z" fill="#939393"/>
<path d="M32.6171 217.546C34.2888 217.868 35.6632 217.732 32.0042 218.545C31.8371 218.579 30.8341 218.478 30.927 218.376C31.1127 218.173 31.7999 217.936 32.6171 217.546Z" fill="#939393"/>
<path d="M87.6126 218.715C85.0309 217.953 86.814 217.783 89.5629 217.953C89.9715 218.681 90.6773 218.512 87.6126 218.715Z" fill="#939393"/>
<path d="M81.9297 218.325C81.0753 217.97 80.3509 217.766 80.1466 217.58C80.0352 217.478 81.001 217.309 81.2053 217.343C84.9386 217.919 83.3413 217.936 81.9297 218.325Z" fill="#939393"/>
<path d="M189.006 262.899C187.985 261.797 186.963 260.713 185.7 259.409C187.855 260.866 189.303 262.085 189.006 262.899Z" fill="#939393"/>
<path d="M162.167 244.856C164.322 245.33 163.671 244.941 165.882 247.041C164.433 246.55 163.319 245.822 162.167 244.856Z" fill="#939393"/>
<path d="M94.1137 225.204C92.4978 225.729 85.8299 224.611 90.8448 224.424C94.7824 225.339 94.3923 225.305 94.1137 225.204Z" fill="#939393"/>
<path d="M26.5431 233.285C25.0386 232.895 24.2957 232.709 23.5342 232.505C27.2489 231.624 27.2675 231.658 26.5431 233.285Z" fill="#939393"/>
<path d="M45.8783 228.406C45.934 228.914 46.5841 228.609 44.1138 229.422C39.3776 228.863 46.4169 228.474 45.8783 228.406Z" fill="#939393"/>
<path d="M6.03809 230.693C6.59529 229.507 5.87092 229.727 10.8858 229.202C5.62947 230.845 6.66959 230.659 6.03809 230.693Z" fill="#939393"/>
<path d="M79.6448 222.646C81.2917 222.42 83.0747 222.504 84.994 222.9C83.0066 223.256 78.5861 222.29 79.6448 222.646Z" fill="#939393"/>
<path d="M59.9203 226.102C58.8802 225.831 57.7844 225.831 60.4218 225.339C60.5704 225.305 61.3691 225.458 61.8705 225.526C61.2948 225.695 60.719 225.865 59.9203 226.102Z" fill="#939393"/>
<path d="M102.156 228.439C103.215 227.27 102.546 227.254 105.555 228.609C104.347 229.134 101.543 228.185 102.156 228.439Z" fill="#939393"/>
<path d="M189.341 255.139C189.434 254.275 189.192 254.106 190.474 255.021C191.217 255.563 190.715 255.597 190.158 255.817C189.879 255.58 189.619 255.36 189.341 255.122V255.139Z" fill="#939393"/>
<path d="M61.9254 218.224C60.3095 218.664 61.1639 218.647 58.415 218.19C59.7895 217.868 59.0094 217.817 61.9254 218.224Z" fill="#939393"/>
<path d="M108.044 223.018C111.127 223.831 110.291 224.407 108.341 223.764C106.874 223.272 106.948 223.035 108.044 223.018Z" fill="#939393"/>
<path d="M143.408 237.317C141.402 236.25 141.829 236.182 142.07 235.318C141.439 235.216 143.742 236.029 143.519 236.588C143.185 237.419 143.203 237.283 143.408 237.334V237.317Z" fill="#939393"/>
<path d="M65.3064 219.867C67.3866 220.325 65.6036 220.646 63.2819 220.443C62.4461 220.375 64.9535 219.935 65.3064 219.867Z" fill="#939393"/>
<path d="M192.182 259.087C191.755 259.443 191.922 259.443 191.439 259.002C191.681 258.494 191.681 258.629 192.182 259.087Z" fill="#939393"/>
<path d="M46.8623 213.446C47.7353 213.226 47.1223 213.243 49.3326 213.311C48.4411 213.531 49.2026 213.48 46.8623 213.446Z" fill="#939393"/>
<path d="M40.9381 217.326C38.5978 217.716 39.3407 217.648 38.4492 217.563C40.7338 217.14 40.158 217.224 40.9381 217.326Z" fill="#939393"/>
<path d="M21.0457 221.815C18.5568 222.51 19.3741 222.357 18.3711 222.34C20.8042 221.629 20.1727 221.798 21.0457 221.815Z" fill="#939393"/>
<path d="M142.052 235.318C141.031 234.843 139.991 234.369 138.579 233.742C141.551 234.352 141.588 235.25 142.052 235.318Z" fill="#939393"/>
<path d="M100.503 223.086C99.6855 223.12 99.2769 223.239 98.8869 222.663C98.8311 222.595 99.3512 222.544 100.503 223.086Z" fill="#939393"/>
<path d="M118.946 227.474C117.906 227.796 111.183 225.525 118.983 227.491H118.946V227.474Z" fill="#939393"/>
<path d="M62.9656 222.391C62.4084 222.341 61.8512 222.29 61.2939 222.239C62.0555 222.103 64.8415 222.053 62.9656 222.391Z" fill="#939393"/>
<path d="M61.4797 223.272C58.6751 223.272 59.0094 223.34 59.0837 223.137C61.8326 223.052 61.4982 223.052 61.4797 223.272Z" fill="#939393"/>
<path d="M81.2976 224.966C81.0376 225.068 80.7776 225.17 80.499 225.271C80.2947 225.204 79.8675 225.085 79.9046 225.051C80.5547 224.56 81.0005 224.865 81.2791 224.966H81.2976Z" fill="#939393"/>
<path d="M112.818 232.421C112 232.387 112.65 232.539 110.682 231.896C112.669 232.2 112.13 232.099 112.818 232.421Z" fill="#939393"/>
<path d="M21.2495 234.25C21.491 234.081 21.7324 233.912 21.9739 233.742C23.4412 233.844 20.3394 234.25 21.2495 234.25Z" fill="#939393"/>
<path d="M19.0576 232.522C19.7448 232.302 19.652 232.302 19.5963 232.471C19.4105 232.471 19.2434 232.505 19.0576 232.522Z" fill="#939393"/>
<path d="M26.2269 230.066C25.3354 230.422 25.6883 230.337 24.8896 230.303C25.7812 229.947 25.4654 230.015 26.2269 230.066Z" fill="#939393"/>
<path d="M87.7061 227.508C88.0218 227.423 88.3376 227.355 88.6719 227.288C90.1949 227.813 87.8175 227.542 87.7061 227.508Z" fill="#939393"/>
<path d="M107.988 230.591C108.286 230.54 108.564 230.489 108.861 230.456C110.347 231.252 107.357 230.303 107.988 230.591Z" fill="#939393"/>
<path d="M73.3482 225.881C71.1379 225.39 72.7167 225.661 72.8095 225.695C73.1439 225.813 73.0324 225.932 73.3482 225.881Z" fill="#939393"/>
<path d="M112.093 230.642C110.087 229.863 109.938 229.964 112.185 230.235C112 230.151 112.055 230.066 111.963 230.642H112.093Z" fill="#939393"/>
<path d="M0.633151 234.437C2.88055 233.099 2.69481 233.285 2.39764 233.319C0.0945179 234.64 0.410268 234.454 0.633151 234.437Z" fill="#939393"/>
<path d="M28.0663 226.542C25.6518 226.542 27.3977 226.458 27.5091 226.458C27.8992 226.491 27.732 226.678 28.0663 226.542Z" fill="#939393"/>
<path d="M12.6874 229.388C11.1086 230.201 11.833 229.744 11.9259 229.693C12.6874 229.371 13.1146 229.354 12.6874 229.388Z" fill="#939393"/>
<path d="M94.262 225.255C94.5221 225.187 94.8007 225.119 95.0607 225.051C96.5466 225.695 93.5005 224.967 94.262 225.255Z" fill="#939393"/>
<path d="M153.308 243.551C155.035 244.991 154.756 244.822 154.961 244.89C153.233 243.433 153.419 243.585 153.308 243.551Z" fill="#939393"/>
<path d="M164.972 250.226C163.486 248.837 164.619 249.786 164.675 249.854C164.916 250.108 164.805 250.175 164.972 250.226Z" fill="#939393"/>
<path d="M25.9863 224.763C26.6364 224.594 26.5621 224.577 26.4878 224.763C26.3207 224.763 26.1535 224.763 25.9863 224.763Z" fill="#939393"/>
<path d="M160.569 246.11C160.347 246.076 156.836 243.975 160.681 246.212L160.569 246.11Z" fill="#939393"/>
<path d="M160.682 246.211C160.923 246.245 161.183 246.262 161.425 246.296C162.446 247.312 160.162 245.737 160.682 246.211Z" fill="#939393"/>
<path d="M159.047 245.229C157.115 243.806 158.304 244.568 158.898 245.178L159.047 245.229Z" fill="#939393"/>
<path d="M149.816 239.553C150.002 239.841 150.076 239.824 149.463 239.502C149.574 239.502 149.704 239.536 149.816 239.553Z" fill="#939393"/>
<path d="M118.983 227.491C119.819 227.338 119.503 227.287 120.395 227.745C118.872 227.457 118.89 227.44 118.983 227.491Z" fill="#939393"/>
<path d="M181.502 258.883C181.223 258.595 180.945 258.29 180.666 258.002C181.502 258.443 181.595 258.917 181.502 258.883Z" fill="#939393"/>
<path d="M12.4828 225.085C12.9471 225.204 13.0029 225.136 12.1113 225.339C12.2413 225.254 12.3528 225.17 12.4828 225.085Z" fill="#939393"/>
<path d="M39.4518 219.884C38.6345 220.053 38.7274 220.07 38.8017 219.884C39.0246 219.884 39.2289 219.884 39.4518 219.884Z" fill="#939393"/>
<path d="M179.663 256.156C180.146 256.478 180.109 256.427 179.96 256.461C179.867 256.359 179.756 256.257 179.663 256.156Z" fill="#939393"/>
<path d="M185.793 257.528C185.663 257.172 185.57 257.155 186.146 257.647C186.035 257.613 185.923 257.562 185.793 257.528Z" fill="#939393"/>
<path d="M92.256 216.021C91.4387 215.954 91.5316 216.021 91.6616 215.852C91.8659 215.903 92.0517 215.971 92.256 216.021Z" fill="#939393"/>
<g opacity="0.6">
<path d="M1.33874 242.744C2.45315 243.698 2.91749 243.678 2.99179 242.841C3.02893 242.471 3.90189 242.452 4.51482 245.158C8.89817 250.415 4.44052 249.714 8.26667 252.673C7.6166 246.91 7.44944 249.169 9.2325 251.194C10.3841 252.498 11.6099 252.81 11.9628 254.484C9.2325 252.771 9.80828 252.693 10.9784 255.886C11.7956 256.314 13.8387 259.04 14.0059 261.142C13.653 260.714 13.3187 260.344 12.8358 259.78C13.8573 261.921 13.8759 263.868 15.1575 265.718C15.3803 266.049 15.5104 266.438 15.5847 266.847H91.7919C91.7362 263.537 91.8662 260.539 92.5349 266.847H95.971C95.971 266.847 95.971 266.788 95.971 266.769C95.9524 266.769 95.8224 266.691 95.2838 266.38C95.2838 264.511 95.4695 259.565 94.095 259.351C93.705 252.946 94.5408 254.289 95.1166 254.679C95.2466 252.225 91.569 229.816 90.5846 239.045C91.2161 241.478 92.0334 241.77 92.4234 245.119C88.9316 238.578 90.5104 245.664 89.4888 243.464C89.1359 240.544 89.1173 240.544 89.9346 238.967C89.5445 237.059 89.0802 236.183 88.5973 235.677C88.3187 236.183 88.393 238.091 87.5757 236.436C87.52 235.579 87.4829 234.878 87.39 233.593C78.1961 221.191 83.0438 221.717 79.0319 215.837C78.5676 217.395 80.0349 222.145 79.8863 224.268C77.2303 224.131 78.8833 222.671 76.1901 218.563C76.413 218.758 76.283 218.446 76.7659 219.556C76.9145 218.368 75.5772 215.643 75.2986 214.105C75.2243 209.257 78.2332 216.947 74.6485 207.407C75.6515 205.343 75.1129 209.179 69.1322 195.901C67.6463 194.051 67.572 195.414 67.442 195.375C69.448 199.191 70.3209 202.326 71.6582 205.889C70.8224 205.246 69.6337 201.8 69.2065 202.482C68.8722 203.007 67.4606 200.204 67.052 200.496C66.8291 200.651 66.5133 200.71 65.6589 199.23C64.9531 197.4 64.6745 197.653 67.0334 198.198C66.4948 195.453 63.1887 190.255 60.7927 183.772C58.8239 181.124 58.0809 180.209 57.9138 180.014C55.9264 178.904 56.205 178.632 57.7838 181.864C54.9977 178.69 53.549 175.77 51.7288 172.635C51.9331 172.421 52.1374 172.207 52.3789 171.934C54.5334 176.14 59.3997 181.279 55.9078 174.933C53.419 172.596 55.5178 173.219 50.6887 167.242C50.6515 167.281 50.5215 167.32 50.2615 167.456C51.6731 169.929 51.023 167.943 45.2652 162.531C45.4509 163.407 47.104 165.646 46.3796 165.743C46.5282 165.977 46.6396 166.171 46.7325 166.327C45.9524 165.139 43.575 161.771 38.783 156.047C37.2228 154.178 39.2845 156.592 30.3135 148.766C26.4688 143.159 27.3046 143.684 18.9836 138.038C19.8937 140.511 19.5222 141.309 24.4628 144.035C19.0765 139.167 23.627 141.757 24.2214 142.983C24.8157 144.249 23.0512 142.983 27.3974 146.137C27.9175 147.617 25.2057 146.624 25.15 146.546C26.5802 147.987 26.2644 147.968 24.8714 147.014C24.9829 147.072 33.5267 158.345 20.7667 146.332C21.0267 145.573 21.101 145.3 21.1567 145.222C18.705 143.568 17.8321 143.256 16.9962 141.562C16.8105 141.173 16.7734 140.472 16.8477 140.569C14.4517 138.155 9.02819 133.755 6.89223 133.502C7.48658 134.242 8.09951 135.021 8.71244 135.819C5.23918 135.059 10.3655 139.012 6.0007 136.909C3.86474 133.113 4.42195 133.872 1.41303 130.698C1.11586 130.504 0.800106 130.309 0.50293 130.114V237.546C1.11586 238.344 1.74736 239.415 2.4903 240.992C0.632945 241.576 0.855827 241.167 1.43161 242.744H1.33874ZM92.4791 254.679C92.8135 260.13 93.1292 259.332 91.2161 257.424C90.9561 252.07 90.3989 252.459 92.4791 254.679ZM90.8818 263.498C90.789 262.992 90.6775 262.466 90.5661 261.96C90.7332 260.344 90.919 262.817 90.8818 263.498ZM77.9361 228.434C78.6976 230.284 78.5304 229.797 78.5676 230.478C77.8061 228.609 78.0104 229.232 77.9361 228.434ZM89.7117 263.868C88.5044 256.84 88.2444 258.027 89.2288 257.404C89.8789 259.507 90.3246 261.512 89.7117 263.868ZM90.2875 255.691C89.916 254.854 89.9903 255.457 89.916 253.647C90.1575 254.27 90.0832 253.783 90.2875 255.691ZM87.4457 245.178C87.7057 244.068 87.8729 242.997 88.5787 245.392C88.4487 245.08 89.2659 244.71 90.176 248.351C88.2072 249.772 88.523 248.877 88.9316 252.089C87.9101 252.264 85.7184 239.356 85.6998 239.259C84.4182 231.666 87.39 245.08 87.4457 245.197V245.178ZM82.3194 230.848C83.341 234.431 81.6508 232.912 80.9821 228.337C81.3536 228.103 81.8365 229.154 82.3194 230.848ZM80.3506 232.951C80.4435 233.204 80.685 234.392 79.7934 231.53C79.9792 231.997 80.1835 232.464 80.3506 232.951ZM78.6047 226.584C77.7132 225.961 78.0475 226.468 77.3789 224.209C78.6233 225.923 78.3818 225.455 78.6047 226.584ZM74.0542 211.262C73.5341 211.632 73.6827 211.652 73.4227 211.067C73.9427 210.698 73.7942 210.678 74.0542 211.262ZM68.2221 204.448C68.0178 204.234 67.8135 204.02 67.6092 203.805C69.6523 204.604 71.7325 210.698 68.2221 204.448ZM54.9792 179.196C58.2667 184.005 56.0193 182.506 57.2266 185.154C56.8737 184.764 56.6322 184.492 56.4093 184.239C56.8365 183.908 57.0222 184.258 54.2176 180.325C53.5861 178.651 53.7904 178.262 54.9792 179.177V179.196ZM48.6641 170.357C49.89 171.993 49.5371 171.428 50.0757 172.927C48.2184 170.669 48.4784 171.35 48.6641 170.357ZM49.2399 174.29C48.9985 174.193 48.757 174.076 48.5156 173.959C48.4227 173.764 48.2184 173.394 48.2741 173.394C48.9799 173.433 49.0913 173.979 49.2399 174.29ZM38.4301 163.64C38.5044 163.309 38.5973 162.978 38.653 162.706C39.916 163.446 40.9375 164.4 42.1077 166.113C41.9962 167.106 39.5631 164.185 38.4115 163.64H38.4301ZM33.6939 154.237C42.9806 161.09 50.9301 173.122 43.8722 167.028C39.5074 162.531 43.5193 163.699 36.387 159.98C36.1456 161.168 36.7399 161.304 33.6196 158.169C35.2726 157.274 35.6812 158.228 31.5765 153.38C30.1092 150.129 29.7377 150.168 33.6939 154.256V154.237ZM16.6433 146.994C16.7734 147.169 17.052 147.481 16.9962 147.481C16.4205 147.637 16.0861 147.267 15.9375 147.13C16.179 147.072 16.4205 147.033 16.6433 146.994ZM9.10248 248.565C8.99104 248.935 9.00962 249.383 8.86103 249.305C8.45241 249.091 8.06236 248.546 7.83948 247.65C8.19238 247.903 8.54528 248.156 9.10248 248.565ZM4.44052 242.724C4.29193 242.413 4.14335 242.121 3.99476 241.809C4.40338 242.101 5.23919 243.386 4.44052 242.724ZM2.06311 233.632C2.28599 233.808 2.50887 233.983 2.73176 234.158C3.17752 235.424 2.26742 234.158 2.06311 233.632Z" fill="#5F5F5F"/>
<path d="M14.6185 252.673C14.507 252.537 14.4142 252.381 14.3027 252.245C14.3585 252.654 15.0457 253.803 14.6185 252.673Z" fill="#5F5F5F"/>
<path d="M77.9172 231.043C77.8614 230.615 77.9172 230.693 77.75 230.654C77.8057 230.79 77.8614 230.907 77.9172 231.043Z" fill="#5F5F5F"/>
<path d="M15.1206 142.166C14.6934 141.737 14.7677 141.776 14.6377 141.854C14.8049 141.952 14.972 142.068 15.1206 142.166Z" fill="#5F5F5F"/>
<path d="M63.4856 195.258C63.2999 194.771 63.3556 194.83 63.207 194.849C63.2999 194.986 63.3928 195.122 63.4856 195.258Z" fill="#5F5F5F"/>
<path d="M82.3379 240.991C82.5608 241.322 82.5422 241.38 82.3936 240.757C82.375 240.835 82.3565 240.913 82.3379 240.991Z" fill="#5F5F5F"/>
<path d="M37.4268 155.775C37.854 155.989 37.8726 156.067 37.3711 155.521C37.3897 155.599 37.4082 155.697 37.4268 155.775Z" fill="#5F5F5F"/>
<path d="M82.9876 213.872C81.3717 206.454 83.1734 206.551 86.7395 216.578C86.3309 221.231 88.5968 221.64 88.8383 226.527C91.2157 230.323 92.5901 240.739 87.5196 224.599C84.4364 214.806 84.3992 220.472 82.969 213.891L82.9876 213.872Z" fill="#5F5F5F"/>
<path d="M83.3969 224.482C81.5024 218.583 80.9452 218.194 82.7469 220.978C82.7097 217.337 82.3011 218.194 84.0099 217.337C83.787 216.967 83.9356 216.889 84.92 222.574C83.1369 224.56 83.3041 224.307 83.3969 224.482Z" fill="#5F5F5F"/>
<path d="M4.36625 126.668C-0.0542525 122.307 -1.3544 122.618 5.70355 123.884C7.50518 124.857 8.30385 125.714 9.13966 126.863C8.32242 126.668 7.37517 126.434 6.3722 126.201C5.6664 126.24 7.72807 128.089 4.36625 126.688V126.668Z" fill="#5F5F5F"/>
<path d="M96.751 262.642C94.7265 245.372 98.4969 262.914 98.5712 261.863C98.0883 263.537 97.4382 263.362 96.6953 262.486C96.6953 262.544 96.7324 262.583 96.751 262.642Z" fill="#5F5F5F"/>
<path d="M75.0759 206.803C76.1718 205.908 76.0789 205.888 76.1346 205.966C77.3233 207.855 78.1777 209.023 78.7163 211.417C79.3293 214.201 78.8463 213.286 77.379 212.099C77.4533 212.216 74.853 205.849 75.0573 206.784L75.0759 206.803Z" fill="#5F5F5F"/>
<path d="M84.9568 228.025C84.6411 226.662 84.5668 225.397 84.9568 226.039C86.8513 229.232 86.6656 223.606 88.6529 232.834C88.5972 232.756 84.3996 227.032 84.9568 228.025Z" fill="#5F5F5F"/>
<path d="M64.7119 189.826C66.2535 192.104 66.0306 190.293 67.3865 192.026C67.1636 192.532 66.8664 192.844 66.7921 193.486C66.7736 193.7 67.5536 195.978 67.3493 195.239C67.758 198.704 68.278 198.451 64.7305 192.435C64.9905 193.116 64.0061 189.651 64.7676 189.865L64.7119 189.807V189.826Z" fill="#5F5F5F"/>
<path d="M37.8545 153.789C40.5662 155.385 42.4979 157.702 43.1294 158.987C42.2379 158.812 42.3307 158.734 37.8545 153.789Z" fill="#5F5F5F"/>
<path d="M8.0257 256.353C9.36299 257.034 12.1305 262.349 8.47146 258.066C7.91426 257.423 8.0257 256.937 8.0257 256.353Z" fill="#5F5F5F"/>
<path d="M3.47426 252.206C5.07158 251.797 6.66891 256.411 4.19863 253.978C3.39996 251.953 3.41854 252.011 3.47426 252.206Z" fill="#5F5F5F"/>
<path d="M93.2409 230.303C92.6279 227.246 92.4608 223.664 94.2438 228.22C94.2996 230.848 92.9251 229.738 93.2409 230.303Z" fill="#5F5F5F"/>
<path d="M76.8403 202.15C74.5186 197.225 75.2244 199.502 74.4814 195.063C76.1345 198.023 76.1345 198.023 76.8403 202.15Z" fill="#5F5F5F"/>
<path d="M93.1663 230.167C96.3981 238.636 91.3461 232.191 93.2406 230.303C93.2221 230.264 93.1849 230.205 93.1663 230.167Z" fill="#5F5F5F"/>
<path d="M95.618 248.643C95.358 247.533 95.0979 246.443 94.8193 245.372C94.9494 244.224 95.2094 244.126 95.6737 245.178C96.5467 249.149 95.3394 248.001 95.5994 248.643H95.618Z" fill="#5F5F5F"/>
<path d="M7.7276 124.215C5.68451 122.327 7.41185 122.891 9.84498 124.215C9.90071 125.15 10.6251 125.286 7.7276 124.215Z" fill="#5F5F5F"/>
<path d="M2.67649 121.431C2.04499 120.71 1.48778 120.185 1.37634 119.912C1.32062 119.756 2.28645 119.99 2.45361 120.107C5.62968 122.287 4.1438 121.626 2.67649 121.431Z" fill="#5F5F5F"/>
<path d="M81.2232 213.325C80.7774 211.748 80.3131 210.171 79.7188 208.263C81.056 210.697 81.8361 212.585 81.2232 213.325Z" fill="#5F5F5F"/>
<path d="M64.5635 183.051C66.328 184.453 65.9193 183.771 66.9966 186.925C65.8822 185.796 65.195 184.569 64.5635 183.051Z" fill="#5F5F5F"/>
<path d="M10.83 133.774C9.12126 133.657 3.49347 129.666 8.17401 131.593C11.3687 134.202 11.0343 134.008 10.83 133.774Z" fill="#5F5F5F"/>
<path d="M16.773 140.569C18.2589 139.79 17.646 139.478 19.8005 142.165C18.4632 142.224 16.3272 140.043 16.773 140.569Z" fill="#5F5F5F"/>
<path d="M84.9385 205.285C85.4214 204.408 85.2542 204.136 86.0343 205.635C86.4801 206.511 85.9972 206.355 85.3842 206.355C85.2357 206.005 85.0871 205.635 84.9385 205.285Z" fill="#5F5F5F"/>
<path d="M95.5627 248.507C96.3614 254.581 95.0241 252.732 95.6185 248.643C95.5999 248.604 95.5813 248.546 95.5627 248.507Z" fill="#5F5F5F"/>
<path d="M24.5555 137.318C27.0258 139.459 26.0043 139.732 24.4998 138.213C23.3854 137.084 23.5525 136.87 24.5555 137.318Z" fill="#5F5F5F"/>
<path d="M50.6699 167.242C49.2954 165.276 49.7226 165.373 50.317 164.575C49.7784 164.205 51.5429 166.016 51.0971 166.522C50.4284 167.262 50.5027 167.125 50.6699 167.262V167.242Z" fill="#5F5F5F"/>
<path d="M5.85185 248.644C5.68469 248.585 5.51753 248.546 5.35036 248.488C5.31322 248.352 5.20177 248.079 5.23892 248.079C5.79613 248.06 5.77755 248.371 5.83328 248.644H5.85185Z" fill="#5F5F5F"/>
<path d="M9.25152 254.25C9.17722 254.64 9.15865 255.088 8.8429 254.484C8.50857 253.861 9.01006 254.153 9.25152 254.25Z" fill="#5F5F5F"/>
<path d="M12.9655 261.628C12.4826 261.22 12.6312 261.589 12.334 260.382C12.6869 260.752 12.5383 260.441 12.9655 261.628Z" fill="#5F5F5F"/>
<path d="M11.053 261.98C10.8302 262.038 10.6073 262.097 10.2915 262.194C10.1801 260.383 11.1088 262.311 11.053 261.98Z" fill="#5F5F5F"/>
<path d="M8.65675 262.505C8.26671 261.123 8.65675 261.843 8.65675 261.941C9.13966 263.226 8.86106 262.758 8.65675 262.505Z" fill="#5F5F5F"/>
<path d="M91.7921 228.57C91.5507 227.889 91.1606 227.11 91.6249 227.09C91.6621 227.09 91.8107 227.499 91.9035 227.713C91.8664 227.986 91.8293 228.278 91.7921 228.551V228.57Z" fill="#5F5F5F"/>
<path d="M85.8112 210.638C85.254 210.833 85.4212 210.911 85.1611 210.23C85.6069 209.801 85.5326 209.938 85.8112 210.638Z" fill="#5F5F5F"/>
<path d="M50.317 164.556C49.5926 163.621 48.8497 162.686 47.8281 161.44C50.2798 163.329 49.9269 164.283 50.317 164.556Z" fill="#5F5F5F"/>
<path d="M17.6273 134.222C16.8658 133.91 16.4386 133.871 16.3271 133.093C16.3271 132.995 16.8101 133.171 17.6273 134.222Z" fill="#5F5F5F"/>
<path d="M32.5976 146.604C31.5017 146.507 26.3383 141.289 32.6162 146.643V146.604H32.5976Z" fill="#5F5F5F"/>
<path d="M78.0106 217.629C77.5648 216.928 77.7877 217.571 77.2119 215.546C77.6391 216.188 77.4719 215.682 78.0106 217.629Z" fill="#5F5F5F"/>
<path d="M24.7967 149.232C24.0537 148.843 24.5923 149.291 23.0879 147.772C24.7781 148.94 24.3323 148.59 24.7967 149.232Z" fill="#5F5F5F"/>
<path d="M3.45568 252.108C3.28852 252.05 3.13993 251.992 2.97277 251.933C2.82418 250.94 3.52997 252.478 3.45568 252.108Z" fill="#5F5F5F"/>
<path d="M3.93945 133.521C4.27378 133.58 4.58953 133.638 4.92385 133.677C6.09399 134.865 4.01375 133.599 3.93945 133.521Z" fill="#5F5F5F"/>
<path d="M21.1752 145.281C21.4538 145.359 21.7509 145.417 22.0295 145.495C23.0325 146.955 20.7294 144.697 21.1752 145.281Z" fill="#5F5F5F"/>
<path d="M24.9085 147.053C23.4227 145.378 23.2369 145.437 25.1686 146.663C25.0386 146.488 25.1314 146.449 24.7785 146.994L24.89 147.053H24.9085Z" fill="#5F5F5F"/>
<path d="M78.716 221.62C78.6603 221.97 78.716 221.99 78.5117 221.367C78.586 221.445 78.6417 221.542 78.716 221.62Z" fill="#5F5F5F"/>
<path d="M10.9408 133.891C11.2194 133.93 11.498 133.969 11.7581 134.008C12.8353 135.312 10.365 133.268 10.9408 133.891Z" fill="#5F5F5F"/>
<path d="M57.0039 177.97C57.9512 180.209 57.784 179.917 57.9326 180.073C56.9853 177.814 57.0782 178.048 57.0039 177.97Z" fill="#5F5F5F"/>
<path d="M64.7674 189.884C64.0059 187.782 64.6374 189.281 64.6745 189.378C64.786 189.748 64.656 189.768 64.7674 189.884Z" fill="#5F5F5F"/>
<path d="M77.3789 212.099C78.0661 214.455 77.6575 213.287 77.4532 212.216C77.4346 212.177 77.3975 212.138 77.3789 212.099Z" fill="#5F5F5F"/>
<path d="M62.5385 183.694C62.3527 183.558 60.0496 179.878 62.5942 183.83L62.5385 183.694Z" fill="#5F5F5F"/>
<path d="M62.5942 183.849C62.8171 183.986 63.0214 184.122 63.2443 184.258C63.7272 185.757 62.3341 183.129 62.5942 183.849Z" fill="#5F5F5F"/>
<path d="M61.5359 182.135C60.3843 179.819 61.1459 181.123 61.4245 182.019L61.5359 182.135Z" fill="#5F5F5F"/>
<path d="M55.5735 172.284C55.6107 172.673 55.685 172.673 55.2764 172.089C55.3692 172.148 55.4807 172.226 55.5735 172.284Z" fill="#5F5F5F"/>
<path d="M83.3223 224.364C83.9723 227.187 83.4523 225.26 83.3966 224.481C83.378 224.442 83.3408 224.403 83.3223 224.364Z" fill="#5F5F5F"/>
<path d="M32.6169 146.643C33.4527 146.818 33.1741 146.643 33.8056 147.5C32.5426 146.546 32.5612 146.546 32.6169 146.643Z" fill="#5F5F5F"/>
<path d="M84.8828 227.909C85.4772 230.751 84.9943 228.98 84.9571 228.045C84.9385 228.006 84.9014 227.948 84.8828 227.909Z" fill="#5F5F5F"/>
<path d="M76.1156 205.947C75.9856 205.518 75.8742 205.09 75.7441 204.681C76.3199 205.479 76.1899 206.044 76.1156 205.947Z" fill="#5F5F5F"/>
<path d="M75.6328 202.306C75.93 202.851 75.93 202.773 75.7814 202.754C75.7443 202.598 75.6885 202.462 75.6328 202.306Z" fill="#5F5F5F"/>
<path d="M80.6289 206.317C80.6661 205.889 80.5918 205.83 80.8889 206.59C80.7961 206.492 80.7218 206.414 80.6289 206.317Z" fill="#5F5F5F"/>
<path d="M13.1516 123.339C12.4273 122.93 12.5015 123.027 12.6873 122.911C12.8359 123.047 13.003 123.203 13.1516 123.339Z" fill="#5F5F5F"/>
<path d="M90.8636 224.287C90.4922 223.528 90.585 223.859 90.5107 223.061C90.8822 223.8 90.8079 223.508 90.8636 224.287Z" fill="#5F5F5F"/>
<path d="M98.5527 262.019C98.6642 262.233 98.7756 262.427 98.8685 262.642C98.6827 264.063 98.6085 261.298 98.5527 262.019Z" fill="#5F5F5F"/>
<path d="M96.1198 243.094C96.0827 244.398 95.7855 242.88 95.8969 242.529C95.8969 242.529 96.0455 242.899 96.1198 243.094Z" fill="#5F5F5F"/>
<path d="M95.5813 236.825C95.4698 237.331 95.5441 237.351 95.3584 236.494C95.4327 236.611 95.507 236.728 95.5813 236.825Z" fill="#5F5F5F"/>
<path d="M98.2182 243.172C98.0882 242.958 97.9582 242.763 97.8096 242.569C97.8467 240.972 98.2182 243.893 98.2182 243.172Z" fill="#5F5F5F"/>
<path d="M98.2188 243.308C98.3673 243.523 98.4974 243.737 98.6459 243.97C98.5902 245.606 98.2188 242.685 98.2188 243.308Z" fill="#5F5F5F"/>
<path d="M88.5785 249.344C88.4485 249.149 88.3185 248.955 88.1885 248.76C88.2628 247.417 88.5785 250.162 88.5785 249.344Z" fill="#5F5F5F"/>
<path d="M88.542 245.255C88.8392 248.098 88.5048 246.015 88.5977 245.392L88.542 245.255Z" fill="#5F5F5F"/>
</g>
<path d="M296.565 22.5824C297.81 22.5146 299.11 22.3283 300.41 22.0742V0.863281H115.9C116.328 1.26988 116.718 1.65954 116.959 2.01531C118.872 5.86105 113.189 0.812457 120.098 7.11473C119.968 9.13078 119.002 5.87799 129.552 14.281C131.614 15.2128 131.168 14.0947 131.298 14.0777C127.992 11.7737 126.004 9.5882 123.423 7.23332C124.444 7.45356 126.84 9.75762 126.97 9.04607C127.063 8.50394 129.441 10.215 129.701 9.84233C129.849 9.63903 130.128 9.46961 131.465 10.3336C132.802 11.5365 132.969 11.2315 130.611 11.6551C132.152 13.6372 137.167 16.5851 141.829 20.8882C144.634 22.2775 145.674 22.7349 145.897 22.8365C148.126 22.989 147.977 23.3109 145.321 21.3118C149.091 22.8196 151.543 24.6154 154.403 26.4451C154.292 26.6992 154.199 26.9364 154.069 27.2413C150.484 24.6662 144.058 22.3622 149.704 26.1401C152.88 27.0889 150.707 27.3599 157.431 30.3755C157.449 30.3417 157.542 30.257 157.728 30.0537C155.499 28.5967 156.855 29.9351 164.192 32.1544C163.672 31.5276 161.313 30.3417 161.944 30.0028C161.721 29.8673 161.554 29.7487 161.406 29.664C162.576 30.3247 166.049 32.1375 172.605 34.9667C174.76 35.8816 171.937 34.7126 183.155 37.6774C188.82 40.7438 187.854 40.6252 197.643 42.0991C195.86 40.4558 195.897 39.6934 190.343 39.3207C197.141 41.2351 191.978 40.8285 190.975 40.0661C189.935 39.2868 192.033 39.6257 186.851 38.7108C185.811 37.7282 188.672 37.5249 188.764 37.5588C186.907 36.9319 187.204 36.8472 188.857 37.0844C188.727 37.0844 176.599 31.2226 192.869 36.1187C192.925 36.8134 192.943 37.0675 192.943 37.1352C195.822 37.5588 196.732 37.4741 198.163 38.5245C198.478 38.7616 198.794 39.3038 198.664 39.2529C201.803 40.3033 208.434 41.8281 210.495 41.2351C209.678 40.8624 208.805 40.4558 207.932 40.0661C211.406 39.4054 205.202 38.1179 210.013 38.2026C213.43 40.4558 212.631 40.0323 216.606 41.4723C221.25 42.1161 226.246 41.7942 227.397 41.7603C226.394 41.1504 217.293 40.6083 224.128 39.9475C231.669 41.9467 233.471 40.2186 237.873 40.1339C237.743 40.0831 237.464 39.8967 236.647 39.3885C247.865 38.2873 236.498 40.0153 257.635 37.6096C260.793 37.2538 260.458 37.4571 265.046 38.0331C269.355 37.5249 274.054 36.4745 269.689 36.322C267.182 36.2373 264.024 36.7964 276.766 33.2217C282.765 33.713 291.105 29.8673 285.087 32.866C286.684 33.5775 286.554 34.9498 291.792 34.3738C302.045 29.8504 300.41 31.2734 290.789 31.4598C295.729 28.9355 294.727 30.7991 300.039 29.0202C300.187 29.0202 300.299 29.0372 300.429 29.0541V24.2766C299.871 24.5646 299.314 24.8356 298.738 25.1236C291.625 27.038 298.088 24.2427 295.637 24.2427C293.946 24.2427 296.157 23.1923 296.602 22.5485L296.565 22.5824ZM119.151 3.845C119.485 3.37064 119.355 3.40452 119.801 3.76029C119.467 4.23466 119.597 4.20078 119.151 3.845ZM127.1 7.14861C127.36 7.25026 127.639 7.35191 127.899 7.43662C125.707 7.53827 121.491 3.4384 127.1 7.14861ZM148.887 22.4469C144.039 19.8209 146.677 20.1936 144.541 18.5164C145.005 18.7028 145.358 18.8383 145.637 18.94C145.377 19.3635 145.042 19.1433 149.128 21.261C150.354 22.3791 150.317 22.7518 148.868 22.4469H148.887ZM170.005 28.8C170.061 29.1049 170.117 29.3929 170.154 29.6301C168.724 29.5115 167.405 29.1219 165.678 28.1731C165.399 27.3599 168.761 28.783 170.005 28.8ZM156.799 24.2427C156.948 24.3782 157.282 24.5985 157.227 24.6154C156.576 24.8356 156.261 24.4629 156.001 24.2596C156.261 24.2596 156.521 24.2596 156.781 24.2596L156.799 24.2427ZM155.778 25.6488C158.341 26.767 157.858 26.3265 158.062 27.1736C156.316 26.3096 156.855 26.6315 155.778 25.6488ZM177.936 34.5601C166.81 32.4763 154.923 25.8013 163.727 28.0715C169.448 30.0706 165.325 30.5958 173.274 30.9685C173.051 29.9351 172.457 30.0367 176.506 31.409C175.336 32.7304 174.593 32.1205 180.221 34.4924C182.802 36.5592 183.137 36.3898 177.936 34.5601ZM196.342 34.1027C196.157 34.018 195.785 33.8655 195.841 33.8316C196.324 33.4928 196.751 33.6622 196.955 33.713C196.751 33.8316 196.565 33.9672 196.361 34.0858L196.342 34.1027ZM223.868 34.9837C227.156 35.2886 227.156 35.2547 226.729 36.2712C225.614 35.7799 224.853 35.4411 223.868 34.9837ZM228.753 37.5927C226.06 37.491 226.376 37.5249 226.394 37.3555C229.032 37.5249 228.772 37.4402 228.753 37.5927ZM237.074 38.6769C235.96 38.4059 237.019 38.4228 237.669 38.372C237.464 38.4736 237.279 38.5753 237.074 38.6769ZM245.154 38.4228C243.556 37.8637 245.73 37.5588 247.531 37.796C247.921 37.8468 245.265 38.4059 245.154 38.4228ZM263.244 35.5597C263.319 34.7634 267.591 34.6109 268.278 34.001C269.281 33.1031 271.175 33.2556 272.754 33.0015C271.807 33.8655 266.179 35.8816 263.244 35.5766V35.5597ZM288.932 26.0216C289.86 25.5472 289.879 25.7166 290.027 25.8183C289.805 25.8521 289.47 25.9368 288.932 26.0216ZM291.235 26.462C290.789 26.0554 290.659 25.8691 290.473 25.8013C291.699 25.598 292.516 25.5472 291.235 26.462ZM293.594 18.4487C293.909 18.364 295.302 17.9574 295.247 18.1437C291.402 19.2449 293.501 18.4656 293.594 18.4487Z" fill="#8D8D8D"/>
<path d="M273.052 32.9166C277.584 30.4092 288.041 30.9005 273.052 32.9166V32.9166Z" fill="#8D8D8D"/>
<path d="M237.966 38.304C237.873 36.3896 245.432 37.4738 237.966 38.304V38.304Z" fill="#8D8D8D"/>
<path d="M283.285 28.0548C283.731 27.7837 283.787 27.8176 283.044 27.987C283.118 28.004 283.211 28.0378 283.285 28.0548Z" fill="#8D8D8D"/>
<path d="M265.417 33.6115C265.9 33.4082 265.937 33.4421 265.157 33.5437C265.25 33.5607 265.324 33.5945 265.417 33.6115Z" fill="#8D8D8D"/>
<path d="M286.368 30.1725C286.833 29.9014 286.888 29.9353 286.108 30.1047C286.201 30.1216 286.276 30.1386 286.368 30.1725Z" fill="#8D8D8D"/>
<path d="M206.242 35.492C206.688 35.4242 206.707 35.475 206.094 35.3564C206.149 35.4073 206.205 35.4581 206.242 35.492Z" fill="#8D8D8D"/>
<path d="M259.678 36.1357C259.14 36.3729 259.102 36.3221 259.975 36.2374C259.883 36.2035 259.79 36.1696 259.678 36.1357Z" fill="#8D8D8D"/>
<path d="M226.413 38.8631C226.878 38.7445 226.915 38.7953 226.228 38.7275C226.283 38.7784 226.339 38.8122 226.413 38.8631Z" fill="#8D8D8D"/>
<path d="M216.179 39.49C216.625 39.3884 216.643 39.4392 216.012 39.3545C216.067 39.4053 216.123 39.4392 216.179 39.49Z" fill="#8D8D8D"/>
<path d="M199.574 37.4062C200.131 37.5926 200.039 37.5926 200.15 37.474C199.964 37.4571 199.76 37.4232 199.574 37.4062Z" fill="#8D8D8D"/>
<path d="M134.957 12.7393C135.31 13.0611 135.236 13.0273 135.384 12.9595C135.236 12.8917 135.106 12.807 134.957 12.7393Z" fill="#8D8D8D"/>
<path d="M173.943 34.7128C173.46 34.7128 173.422 34.645 174.091 34.8991C174.035 34.8314 173.98 34.7806 173.943 34.7128Z" fill="#8D8D8D"/>
<path d="M104.626 0.863281H103.178C104.069 1.62565 104.886 2.48967 105.537 4.2516C112.632 10.9435 114.322 10.3675 110.013 5.03091C106.911 1.18517 107.728 3.4384 104.645 0.863281H104.626Z" fill="#8D8D8D"/>
<path d="M241.551 50.3667C255.853 50.9766 258.156 49.4688 246.454 53.3992C237.446 51.8745 236.685 51.9084 241.551 50.3667Z" fill="#8D8D8D"/>
<path d="M254.775 39.3037C254.162 40.2016 258.118 40.1169 259.548 40.7268C257.691 41.6417 255.611 42.6243 253.623 43.5222C256.465 44.9791 251.357 45.8262 250.503 45.2672C249.686 44.742 249.184 44.1659 248.571 43.5899C251.487 42.404 253.289 41.1842 253.178 39.9983C253.159 39.7611 255.258 39.3715 254.775 39.3207V39.3037Z" fill="#8D8D8D"/>
<path d="M287.966 38.3551C287.836 38.694 288.133 38.9989 287.52 39.4055C286.09 40.3204 283.991 41.2522 280.983 41.9976C277.119 42.4042 277.862 42.4889 277.045 39.3208C278.642 38.4568 280.407 38.0841 282.877 37.9824C282.71 38.2535 282.524 38.5923 282.246 39.0836C283.1 39.4394 289.081 38.3043 287.966 38.3551Z" fill="#8D8D8D"/>
<path d="M247.55 39.5746C247.476 40.1337 246.343 41.6076 245.47 41.777C242.702 39.7271 244.782 40.0829 237.26 41.4213C233.898 40.642 241.922 39.2189 247.531 39.5746H247.55Z" fill="#8D8D8D"/>
<path d="M215.362 45.8262C221.083 47.6897 222.16 46.9613 215.195 48.5368C213.17 48.4182 212.112 48.0116 210.923 47.4187C211.74 47.2831 212.706 47.1307 213.709 46.9443C214.359 46.6563 211.759 45.9278 215.362 45.8262Z" fill="#8D8D8D"/>
<path d="M266.439 41.3876C266.644 40.388 270.303 39.7104 273.386 38.8633C277.305 39.2021 271.993 42.6751 266.439 41.3876Z" fill="#8D8D8D"/>
<path d="M119.95 7.77565C119.3 8.8938 119.374 8.87686 119.3 8.82603C117.498 7.74177 116.253 7.14881 114.842 5.42077C113.207 3.42166 114.006 3.96379 115.808 4.38733C115.696 4.31957 120.507 8.43638 119.968 7.77565H119.95Z" fill="#8D8D8D"/>
<path d="M221.715 44.5557C223.07 44.3185 227.231 45.4536 225.559 44.1152C234.679 45.8941 236.165 45.352 228.234 45.9449C220.173 45.0978 221.25 45.2842 221.733 44.5557H221.715Z" fill="#8D8D8D"/>
<path d="M135.923 17.5338C133.657 16.2802 134.53 17.6355 132.617 16.7545C132.617 16.2802 132.784 15.9075 132.617 15.3653C132.561 15.179 130.964 13.6542 131.447 14.1625C129.757 11.5535 129.367 11.9431 134.92 15.4331C134.437 14.9926 136.648 17.3814 135.867 17.5H135.942L135.923 17.5338Z" fill="#8D8D8D"/>
<path d="M174.296 36.4405C171.213 36.1525 168.538 35.0343 167.479 34.2212C168.371 34.0348 168.315 34.1364 174.296 36.4405Z" fill="#8D8D8D"/>
<path d="M120.099 12.1294C124.111 15.2128 122.587 13.6372 124.965 16.9239C122.327 15.1789 122.309 15.1619 120.099 12.1294Z" fill="#8D8D8D"/>
<path d="M263.895 38.9989C267.479 38.2365 266.123 38.1857 269.169 39.0667C265.956 39.846 265.919 39.829 263.895 38.9989Z" fill="#8D8D8D"/>
<path d="M230.983 43.7086C227.565 42.7937 233.249 42.7768 233.471 43.285C233.639 43.6578 232.394 43.7255 230.983 43.7086Z" fill="#8D8D8D"/>
<path d="M268.203 50.18C266.532 49.8581 265.157 49.9937 268.816 49.1805C268.984 49.1466 269.987 49.2482 269.894 49.3499C269.708 49.5532 269.021 49.8073 268.203 50.18Z" fill="#8D8D8D"/>
<path d="M213.208 49.0112C215.789 49.7736 214.006 49.943 211.257 49.7736C210.849 49.0451 210.143 49.2145 213.208 49.0112Z" fill="#8D8D8D"/>
<path d="M218.891 49.4009C219.745 49.7567 220.47 49.96 220.674 50.1463C220.785 50.248 219.82 50.4174 219.615 50.3835C215.863 49.8075 217.479 49.7905 218.891 49.4009Z" fill="#8D8D8D"/>
<path d="M111.815 4.82764C112.836 5.92884 113.858 7.0131 115.121 8.31761C112.966 6.86063 111.536 5.64083 111.815 4.82764Z" fill="#8D8D8D"/>
<path d="M138.653 22.8705C136.499 22.3962 137.149 22.7858 134.938 20.6851C136.387 21.1764 137.502 21.9049 138.653 22.8705Z" fill="#8D8D8D"/>
<path d="M206.707 42.5229C208.323 41.9977 214.991 43.1158 209.976 43.3022C206.038 42.3873 206.428 42.4212 206.707 42.5229Z" fill="#8D8D8D"/>
<path d="M274.277 34.4414C275.781 34.8311 276.524 35.0174 277.286 35.2207C273.571 36.1017 273.553 36.0678 274.277 34.4414Z" fill="#8D8D8D"/>
<path d="M254.942 39.3207C254.886 38.8124 254.236 39.1174 256.707 38.3042C261.443 38.8633 254.404 39.2529 254.942 39.3207Z" fill="#8D8D8D"/>
<path d="M294.801 37.0337C294.244 38.2196 294.968 37.9994 289.953 38.5246C295.209 36.8812 294.169 37.0676 294.801 37.0337Z" fill="#8D8D8D"/>
<path d="M221.175 45.0808C219.528 45.3067 217.745 45.222 215.826 44.8267C217.814 44.4709 222.234 45.4366 221.175 45.0808Z" fill="#8D8D8D"/>
<path d="M240.9 41.625C241.941 41.8961 243.036 41.8961 240.399 42.3874C240.25 42.4213 239.452 42.2688 238.95 42.201C239.526 42.0316 240.102 41.8622 240.9 41.625Z" fill="#8D8D8D"/>
<path d="M198.665 39.2866C197.606 40.4556 198.275 40.4725 195.266 39.1172C196.473 38.592 199.278 39.5407 198.665 39.2866Z" fill="#8D8D8D"/>
<path d="M111.48 12.5868C111.387 13.4509 111.628 13.6203 110.347 12.7054C109.604 12.1633 110.105 12.1294 110.662 11.9092C110.941 12.1464 111.201 12.3666 111.48 12.6038V12.5868Z" fill="#8D8D8D"/>
<path d="M238.895 49.5027C240.51 49.0622 239.656 49.0791 242.405 49.5365C241.03 49.8584 241.811 49.9093 238.895 49.5027Z" fill="#8D8D8D"/>
<path d="M192.777 44.7081C189.694 43.8949 190.529 43.3188 192.48 43.9626C193.947 44.4539 193.873 44.6911 192.777 44.7081Z" fill="#8D8D8D"/>
<path d="M157.413 30.4095C159.419 31.4768 158.992 31.5446 158.75 32.4086C159.382 32.5103 157.079 31.6971 157.301 31.138C157.636 30.3079 157.617 30.4434 157.413 30.3926V30.4095Z" fill="#8D8D8D"/>
<path d="M235.515 47.8594C233.434 47.402 235.217 47.0801 237.539 47.2834C238.375 47.3512 235.868 47.7916 235.515 47.8594Z" fill="#8D8D8D"/>
<path d="M108.639 8.63941C109.066 8.28364 108.899 8.28364 109.382 8.72412C109.14 9.23237 109.14 9.09684 108.639 8.63941Z" fill="#8D8D8D"/>
<path d="M253.958 54.2804C253.085 54.5006 253.698 54.4837 251.487 54.4159C252.379 54.1957 251.617 54.2465 253.958 54.2804Z" fill="#8D8D8D"/>
<path d="M259.883 50.4007C262.223 50.011 261.48 50.0788 262.372 50.1635C260.087 50.587 260.663 50.5023 259.883 50.4007Z" fill="#8D8D8D"/>
<path d="M279.775 45.9108C282.264 45.2162 281.447 45.3687 282.45 45.3856C280.017 46.0972 280.648 45.9277 279.775 45.9108Z" fill="#8D8D8D"/>
<path d="M158.769 32.4087C159.79 32.8831 160.83 33.3574 162.242 33.9843C159.27 33.3744 159.233 32.4765 158.769 32.4087Z" fill="#8D8D8D"/>
<path d="M200.317 44.6573C201.135 44.6235 201.543 44.5049 201.933 45.0809C201.989 45.1486 201.469 45.1995 200.317 44.6573Z" fill="#8D8D8D"/>
<path d="M181.874 40.2526C182.914 39.9307 189.638 42.2008 181.837 40.2356H181.874V40.2526Z" fill="#8D8D8D"/>
<path d="M237.854 45.335C238.412 45.3858 238.969 45.4366 239.526 45.4874C238.765 45.623 235.979 45.6738 237.854 45.335Z" fill="#8D8D8D"/>
<path d="M239.34 44.4542C242.145 44.4542 241.811 44.3864 241.736 44.5897C238.987 44.6744 239.322 44.6744 239.34 44.4542Z" fill="#8D8D8D"/>
<path d="M219.522 42.76C219.782 42.6584 220.043 42.5567 220.321 42.4551C220.525 42.5228 220.953 42.6414 220.915 42.6753C220.265 43.1666 219.82 42.8617 219.541 42.76H219.522Z" fill="#8D8D8D"/>
<path d="M188.003 35.3057C188.82 35.3395 188.17 35.1871 190.139 35.8309C188.152 35.5259 188.69 35.6276 188.003 35.3057Z" fill="#8D8D8D"/>
<path d="M279.57 33.4761C279.329 33.6455 279.088 33.8149 278.846 33.9843C277.379 33.8827 280.481 33.4761 279.57 33.4761Z" fill="#8D8D8D"/>
<path d="M281.762 35.2041C281.075 35.4243 281.168 35.4243 281.224 35.2549C281.409 35.2549 281.577 35.221 281.762 35.2041Z" fill="#8D8D8D"/>
<path d="M274.593 37.6605C275.484 37.3048 275.131 37.3895 275.93 37.4233C275.039 37.7791 275.354 37.7114 274.593 37.6605Z" fill="#8D8D8D"/>
<path d="M213.114 40.2186C212.799 40.3033 212.483 40.3711 212.148 40.4388C210.625 39.9137 213.003 40.1847 213.114 40.2186Z" fill="#8D8D8D"/>
<path d="M192.832 37.1351C192.535 37.1859 192.256 37.2367 191.959 37.2706C190.473 36.4743 193.464 37.4231 192.832 37.1351Z" fill="#8D8D8D"/>
<path d="M227.472 41.8451C229.682 42.3364 228.103 42.0653 228.01 42.0314C227.676 41.9129 227.787 41.7943 227.472 41.8451Z" fill="#8D8D8D"/>
<path d="M188.728 37.0845C190.734 37.8638 190.882 37.7621 188.635 37.4911C188.821 37.5758 188.765 37.6605 188.858 37.0845H188.728Z" fill="#8D8D8D"/>
<path d="M272.754 41.1845C275.168 41.1845 273.423 41.2692 273.311 41.2692C272.921 41.2353 273.088 41.049 272.754 41.1845Z" fill="#8D8D8D"/>
<path d="M288.133 38.3383C289.712 37.5251 288.988 37.9825 288.895 38.0333C288.133 38.3552 287.706 38.3721 288.133 38.3383Z" fill="#8D8D8D"/>
<path d="M206.558 42.472C206.298 42.5397 206.019 42.6075 205.759 42.6753C204.273 42.0315 207.319 42.76 206.558 42.472Z" fill="#8D8D8D"/>
<path d="M147.512 24.1748C145.785 22.7348 146.064 22.9042 145.859 22.8364C147.587 24.2934 147.401 24.1409 147.512 24.1748Z" fill="#8D8D8D"/>
<path d="M135.849 17.5C137.335 18.8892 136.202 17.9405 136.146 17.8727C135.904 17.6186 136.016 17.5508 135.849 17.5Z" fill="#8D8D8D"/>
<path d="M274.834 42.98C274.184 43.1494 274.258 43.1663 274.333 42.98C274.5 42.98 274.667 42.98 274.834 42.98Z" fill="#8D8D8D"/>
<path d="M140.25 21.6168C140.473 21.6507 143.983 23.7514 140.139 21.5151L140.25 21.6168Z" fill="#8D8D8D"/>
<path d="M140.139 21.5152C139.898 21.4813 139.638 21.4644 139.396 21.4305C138.375 20.414 140.659 21.9896 140.139 21.5152Z" fill="#8D8D8D"/>
<path d="M141.773 22.4976C143.705 23.9207 142.516 23.1583 141.922 22.5484L141.773 22.4976Z" fill="#8D8D8D"/>
<path d="M151.005 28.1732C150.819 27.8852 150.745 27.9022 151.358 28.2241C151.246 28.2241 151.116 28.1902 151.005 28.1732Z" fill="#8D8D8D"/>
<path d="M181.836 40.2356C181.001 40.388 181.316 40.4389 180.425 39.9814C181.948 40.2695 181.929 40.2864 181.836 40.2356Z" fill="#8D8D8D"/>
<path d="M119.318 8.84254C119.597 9.13054 119.875 9.43549 120.154 9.7235C119.318 9.28302 119.225 8.80865 119.318 8.84254Z" fill="#8D8D8D"/>
<path d="M288.338 42.6413C287.873 42.5227 287.817 42.5905 288.709 42.3872C288.579 42.4719 288.468 42.5566 288.338 42.6413Z" fill="#8D8D8D"/>
<path d="M261.369 47.8425C262.186 47.6731 262.094 47.6561 262.019 47.8425C261.796 47.8425 261.592 47.8425 261.369 47.8425Z" fill="#8D8D8D"/>
<path d="M121.157 11.5706C120.674 11.2487 120.711 11.2995 120.859 11.2656C120.952 11.3673 121.064 11.4689 121.157 11.5706Z" fill="#8D8D8D"/>
<path d="M115.028 10.1982C115.158 10.554 115.251 10.5709 114.675 10.0796C114.786 10.1135 114.898 10.1643 115.028 10.1982Z" fill="#8D8D8D"/>
<path d="M208.564 51.7051C209.382 51.7728 209.289 51.7051 209.159 51.8745C208.954 51.8237 208.769 51.7559 208.564 51.7051Z" fill="#8D8D8D"/>
<g opacity="0.6">
<path d="M299.482 27.7196C298.367 26.6573 297.903 26.6789 297.829 27.6112C297.792 28.0231 296.919 28.0448 296.306 25.0313C291.922 19.1777 296.38 19.9582 292.554 16.6628C293.204 23.0801 293.371 20.5652 291.588 18.3105C290.437 16.858 289.211 16.5111 288.858 14.6466C291.588 16.5544 291.012 16.6412 289.842 13.0857C289.025 12.6087 286.982 9.57351 286.815 7.23209C287.168 7.70904 287.502 8.12096 287.985 8.74968C286.963 6.36489 286.945 4.1969 285.663 2.13732C285.44 1.76876 285.31 1.33516 285.236 0.879883H209.029C209.084 4.56546 208.954 7.90416 208.286 0.879883H204.85C204.85 0.879883 204.85 0.944922 204.85 0.966602C204.868 0.966602 204.998 1.05332 205.537 1.4002C205.537 3.48147 205.351 8.96648 206.726 9.22663C207.116 16.3593 206.28 14.8634 205.704 14.4298C205.574 17.1615 209.252 42.115 210.236 31.8387C209.604 29.1288 208.787 28.8036 208.397 25.0746C211.889 32.3591 210.31 24.4676 211.332 26.9174C211.685 30.1694 211.703 30.1694 210.886 31.9255C211.276 34.0501 211.74 35.0257 212.223 35.5894C212.502 35.0257 212.428 32.9011 213.245 34.7438C213.301 35.6978 213.338 36.4782 213.431 37.9091C222.625 51.7192 217.777 51.1338 221.789 57.6812C222.253 55.9468 220.786 50.6569 220.934 48.2938C223.59 48.4455 221.937 50.0715 224.63 54.646C224.408 54.4292 224.538 54.7761 224.055 53.5403C223.906 54.8628 225.243 57.898 225.522 59.6107C225.596 65.009 222.587 56.4454 226.172 67.0685C225.169 69.3666 225.708 65.0957 231.688 79.8814C233.174 81.9409 233.249 80.4234 233.379 80.4667C231.373 76.2175 230.5 72.727 229.162 68.7596C229.998 69.475 231.187 73.3123 231.614 72.5536C231.948 71.9682 233.36 75.0901 233.769 74.7649C233.992 74.5915 234.307 74.5264 235.162 76.1741C235.867 78.212 236.146 77.9302 233.787 77.3231C234.326 80.38 237.632 86.1685 240.028 93.3879C241.997 96.3364 242.74 97.3553 242.907 97.5721C244.876 98.8079 244.616 99.1114 243.037 95.5125C245.823 99.0464 247.272 102.298 249.092 105.789C248.887 106.027 248.683 106.266 248.442 106.569C246.287 101.886 241.421 96.1629 244.913 103.231C247.402 105.832 245.303 105.138 250.132 111.794C250.169 111.751 250.299 111.707 250.559 111.556C249.148 108.802 249.798 111.014 255.555 117.041C255.37 116.065 253.717 113.572 254.441 113.463C254.292 113.203 254.181 112.987 254.088 112.813C254.868 114.136 257.246 117.886 262.038 124.26C263.598 126.341 261.536 123.653 270.507 132.368C274.352 138.612 273.516 138.027 281.837 144.314C280.927 141.561 281.298 140.672 276.358 137.637C281.744 143.057 277.194 140.173 276.599 138.807C276.005 137.398 277.769 138.807 273.423 135.295C272.903 133.647 275.615 134.753 275.671 134.84C274.24 133.236 274.556 133.257 275.949 134.32C275.838 134.254 267.294 121.702 280.054 135.078C279.794 135.924 279.72 136.227 279.664 136.314C282.116 138.157 282.989 138.504 283.824 140.39C284.01 140.823 284.047 141.604 283.973 141.496C286.369 144.184 291.774 149.084 293.928 149.365C293.334 148.542 292.721 147.674 292.108 146.785C295.581 147.631 290.455 143.23 294.82 145.571C296.956 149.799 296.399 148.953 299.408 152.487C299.705 152.704 300.02 152.921 300.318 153.138V33.5081C299.705 32.6192 299.073 31.4268 298.33 29.6708C300.188 29.0204 299.965 29.4756 299.389 27.7196H299.482ZM208.323 14.4298C207.989 8.35944 207.673 9.24831 209.586 11.3729C209.846 17.3349 210.403 16.9013 208.323 14.4298ZM209.92 4.60882C210.013 5.1725 210.125 5.75785 210.236 6.32153C210.069 8.12096 209.883 5.36762 209.92 4.60882ZM222.866 43.6543C222.104 41.5947 222.272 42.1367 222.234 41.3779C222.996 43.4592 222.792 42.7654 222.866 43.6543ZM211.109 4.1969C212.316 12.0233 212.576 10.7009 211.592 11.3946C210.942 9.0532 210.496 6.82017 211.109 4.1969ZM210.533 13.3025C210.905 14.2347 210.83 13.5626 210.905 15.5788C210.663 14.8851 210.737 15.4271 210.533 13.3025ZM213.375 25.0096C213.115 26.2453 212.948 27.4377 212.242 24.7711C212.372 25.118 211.555 25.5299 210.645 21.4758C212.613 19.8931 212.298 20.8904 211.889 17.3132C212.911 17.1181 215.102 31.4919 215.121 31.6003C216.402 40.0554 213.431 25.118 213.375 24.9879V25.0096ZM218.501 40.966C217.48 36.9769 219.17 38.6679 219.838 43.7627C219.467 44.0228 218.984 42.8521 218.501 40.966ZM220.47 38.6245C220.377 38.3427 220.136 37.0202 221.027 40.2072C220.841 39.6869 220.637 39.1665 220.47 38.6245ZM222.216 45.7139C223.107 46.4076 222.773 45.8439 223.442 48.3588C222.197 46.451 222.439 46.9713 222.216 45.7139ZM226.766 62.7759C227.286 62.364 227.138 62.3423 227.398 62.9927C226.878 63.4046 227.026 63.4263 226.766 62.7759ZM232.598 70.3639C232.803 70.6024 233.007 70.8408 233.211 71.0793C231.168 70.1904 229.088 63.4047 232.598 70.3639ZM245.841 98.4827C242.554 93.1278 244.801 94.7971 243.594 91.8486C243.947 92.2822 244.188 92.5858 244.411 92.8676C243.984 93.2362 243.798 92.8459 246.603 97.2253C247.234 99.0897 247.03 99.5233 245.841 98.5044V98.4827ZM252.156 108.325C250.931 106.504 251.283 107.133 250.745 105.464C252.602 107.978 252.342 107.22 252.156 108.325ZM251.581 103.946C251.822 104.054 252.064 104.184 252.305 104.315C252.398 104.531 252.602 104.943 252.546 104.943C251.841 104.9 251.729 104.293 251.581 103.946ZM262.39 115.827C262.316 116.195 262.223 116.564 262.168 116.867C260.905 116.043 259.883 114.981 258.713 113.073C258.824 111.968 261.257 115.22 262.409 115.827H262.39ZM267.127 126.298C257.84 118.667 249.89 105.268 256.948 112.054C261.313 117.062 257.301 115.762 264.434 119.902C264.675 118.58 264.081 118.428 267.201 121.919C265.548 122.916 265.139 121.854 269.244 127.252C270.711 130.872 271.083 130.829 267.127 126.276V126.298ZM284.177 134.363C284.047 134.168 283.769 133.843 283.824 133.821C284.4 133.647 284.734 134.059 284.883 134.211C284.642 134.276 284.4 134.32 284.177 134.363ZM291.718 21.259C291.83 20.847 291.811 20.3484 291.96 20.4351C292.368 20.6736 292.758 21.2806 292.981 22.2779C292.628 21.9961 292.275 21.7142 291.718 21.259ZM296.38 27.7629C296.529 28.1098 296.677 28.435 296.826 28.7819C296.417 28.4567 295.581 27.0258 296.38 27.7629ZM298.757 37.8874C298.535 37.6923 298.312 37.4972 298.089 37.3021C297.643 35.8929 298.553 37.3021 298.757 37.8874Z" fill="#6B6B6B"/>
<path d="M286.202 16.6632C286.313 16.8149 286.406 16.9883 286.517 17.14C286.462 16.6848 285.775 15.406 286.202 16.6632Z" fill="#6B6B6B"/>
<path d="M222.903 40.7485C222.959 41.2254 222.903 41.1387 223.07 41.1821C223.015 41.0303 222.959 40.9003 222.903 40.7485Z" fill="#6B6B6B"/>
<path d="M285.7 139.718C286.127 140.195 286.053 140.151 286.183 140.065C286.016 139.956 285.849 139.826 285.7 139.718Z" fill="#6B6B6B"/>
<path d="M237.335 80.5962C237.521 81.1381 237.465 81.0731 237.614 81.0514C237.521 80.8997 237.428 80.7479 237.335 80.5962Z" fill="#6B6B6B"/>
<path d="M218.483 29.6706C218.26 29.3021 218.279 29.2371 218.427 29.9307C218.446 29.844 218.464 29.7573 218.483 29.6706Z" fill="#6B6B6B"/>
<path d="M263.394 124.563C262.967 124.325 262.948 124.238 263.449 124.845C263.431 124.758 263.412 124.65 263.394 124.563Z" fill="#6B6B6B"/>
<path d="M217.833 59.871C219.449 68.131 217.647 68.0226 214.081 56.8575C214.49 51.676 212.224 51.2207 211.982 45.7791C209.605 41.5515 208.23 29.9528 213.301 47.9254C216.384 58.8304 216.421 52.5215 217.852 59.8493L217.833 59.871Z" fill="#6B6B6B"/>
<path d="M217.423 48.0557C219.318 54.6247 219.875 55.0583 218.074 51.958C218.111 56.0122 218.519 55.0583 216.811 56.0122C217.033 56.4241 216.885 56.5108 215.9 50.1803C217.683 47.9689 217.516 48.2508 217.423 48.0557Z" fill="#6B6B6B"/>
<path d="M296.454 156.975C300.875 161.831 302.175 161.484 295.117 160.075C293.315 158.991 292.516 158.037 291.681 156.759C292.498 156.975 293.445 157.235 294.448 157.496C295.154 157.452 293.092 155.393 296.454 156.954V156.975Z" fill="#6B6B6B"/>
<path d="M204.069 5.56328C206.094 24.7933 202.323 5.25976 202.249 6.43047C202.732 4.56601 203.382 4.76112 204.125 5.73672C204.125 5.67168 204.088 5.62832 204.069 5.56328Z" fill="#6B6B6B"/>
<path d="M225.745 67.74C224.649 68.7372 224.742 68.7589 224.686 68.6722C223.497 66.5693 222.643 65.2685 222.104 62.6018C221.491 59.5016 221.974 60.5206 223.442 61.843C223.367 61.713 225.968 68.8023 225.763 67.7616L225.745 67.74Z" fill="#6B6B6B"/>
<path d="M215.864 44.1093C216.18 45.6269 216.254 47.0361 215.864 46.3207C213.97 42.7652 214.155 49.0307 212.168 38.7544C212.224 38.8411 216.421 45.215 215.864 44.1093Z" fill="#6B6B6B"/>
<path d="M236.109 86.6452C234.568 84.1086 234.791 86.1248 233.435 84.1953C233.658 83.6317 233.955 83.2848 234.029 82.5693C234.048 82.3309 233.268 79.7943 233.472 80.6182C233.063 76.7591 232.543 77.041 236.091 83.7401C235.831 82.9813 236.815 86.8403 236.054 86.6018L236.109 86.6668V86.6452Z" fill="#6B6B6B"/>
<path d="M262.966 126.775C260.255 124.997 258.323 122.417 257.691 120.986C258.583 121.181 258.49 121.268 262.966 126.775Z" fill="#6B6B6B"/>
<path d="M292.795 12.5646C291.458 11.8059 288.69 5.88843 292.349 10.6571C292.907 11.3724 292.795 11.9143 292.795 12.5646Z" fill="#6B6B6B"/>
<path d="M207.58 41.5737C208.193 44.9768 208.36 48.9652 206.577 43.893C206.521 40.9668 207.896 42.2023 207.58 41.5737Z" fill="#6B6B6B"/>
<path d="M223.98 72.9219C226.302 78.4069 225.596 75.8703 226.339 80.8133C224.686 77.518 224.686 77.518 223.98 72.9219Z" fill="#6B6B6B"/>
<path d="M207.654 41.7246C204.422 32.2956 209.474 39.4703 207.58 41.5728C207.598 41.6162 207.635 41.6812 207.654 41.7246Z" fill="#6B6B6B"/>
<path d="M205.203 21.1509C205.463 22.3647 205.723 23.6003 206.002 24.7924C205.872 26.0713 205.612 26.1797 205.147 25.0092C204.274 20.5873 205.482 21.8662 205.221 21.1509H205.203Z" fill="#6B6B6B"/>
<path d="M293.092 159.706C295.135 161.809 293.408 161.18 290.975 159.706C290.919 158.666 290.195 158.514 293.092 159.706Z" fill="#6B6B6B"/>
<path d="M219.597 60.4775C220.043 62.2336 220.507 63.9897 221.101 66.1143C219.764 63.4043 218.984 61.3014 219.597 60.4775Z" fill="#6B6B6B"/>
<path d="M236.257 94.189C234.493 92.6283 234.901 93.387 233.824 89.8755C234.939 91.1327 235.626 92.4983 236.257 94.189Z" fill="#6B6B6B"/>
<path d="M289.991 149.062C291.7 149.192 297.328 153.635 292.647 151.489C289.452 148.585 289.787 148.802 289.991 149.062Z" fill="#6B6B6B"/>
<path d="M284.047 141.496C282.561 142.363 283.174 142.709 281.02 139.718C282.357 139.653 284.493 142.081 284.047 141.496Z" fill="#6B6B6B"/>
<path d="M215.882 69.4312C215.399 70.4066 215.566 70.71 214.786 69.041C214.34 68.0656 214.823 68.239 215.436 68.239C215.585 68.6291 215.733 69.041 215.882 69.4312Z" fill="#6B6B6B"/>
<path d="M205.258 21.3022C204.46 14.5393 205.797 16.5986 205.203 21.1505C205.221 21.1938 205.24 21.2589 205.258 21.3022Z" fill="#6B6B6B"/>
<path d="M276.265 145.115C273.794 142.731 274.816 142.428 276.32 144.118C277.435 145.376 277.268 145.614 276.265 145.115Z" fill="#6B6B6B"/>
<path d="M250.151 111.794C251.525 113.983 251.098 113.875 250.503 114.764C251.042 115.176 249.278 113.16 249.723 112.596C250.392 111.772 250.318 111.924 250.151 111.772V111.794Z" fill="#6B6B6B"/>
<path d="M291.569 14.9064C291.644 14.4728 291.662 13.9743 291.978 14.6463C292.312 15.3399 291.811 15.0147 291.569 14.9064Z" fill="#6B6B6B"/>
<path d="M287.854 6.68945C288.337 7.14465 288.189 6.7328 288.486 8.07671C288.133 7.66487 288.282 8.01168 287.854 6.68945Z" fill="#6B6B6B"/>
<path d="M289.768 6.29947C289.991 6.23444 290.214 6.16941 290.53 6.06104C290.641 8.07689 289.712 5.93098 289.768 6.29947Z" fill="#6B6B6B"/>
<path d="M292.164 5.71473C292.554 7.25372 292.164 6.45171 292.164 6.34333C291.681 4.91272 291.96 5.43294 292.164 5.71473Z" fill="#6B6B6B"/>
<path d="M209.028 43.5029C209.27 44.2616 209.66 45.1286 209.196 45.1503C209.158 45.1503 209.01 44.6951 208.917 44.4567C208.954 44.1532 208.991 43.8281 209.028 43.5246V43.5029Z" fill="#6B6B6B"/>
<path d="M215.01 63.4703C215.567 63.2535 215.4 63.1668 215.66 63.9255C215.214 64.4023 215.288 64.2506 215.01 63.4703Z" fill="#6B6B6B"/>
<path d="M250.503 114.786C251.227 115.826 251.97 116.867 252.992 118.254C250.54 116.151 250.893 115.089 250.503 114.786Z" fill="#6B6B6B"/>
<path d="M283.192 148.563C283.954 148.91 284.381 148.954 284.493 149.821C284.493 149.929 284.01 149.734 283.192 148.563Z" fill="#6B6B6B"/>
<path d="M268.223 134.775C269.319 134.884 274.482 140.693 268.204 134.732V134.775H268.223Z" fill="#6B6B6B"/>
<path d="M222.811 55.6865C223.256 56.4669 223.033 55.7516 223.609 58.0058C223.182 57.2905 223.349 57.8541 222.811 55.6865Z" fill="#6B6B6B"/>
<path d="M276.023 131.848C276.766 132.281 276.228 131.783 277.732 133.473C276.042 132.173 276.488 132.563 276.023 131.848Z" fill="#6B6B6B"/>
<path d="M279.645 136.248C279.367 136.162 279.069 136.097 278.791 136.01C277.788 134.384 280.091 136.899 279.645 136.248Z" fill="#6B6B6B"/>
<path d="M275.912 134.275C277.398 136.14 277.584 136.074 275.652 134.709C275.782 134.904 275.689 134.947 276.042 134.34L275.931 134.275H275.912Z" fill="#6B6B6B"/>
<path d="M222.104 51.2426C222.16 50.8525 222.104 50.8308 222.309 51.5244C222.235 51.4377 222.179 51.3294 222.104 51.2426Z" fill="#6B6B6B"/>
<path d="M289.88 148.932C289.601 148.889 289.323 148.845 289.063 148.802C287.985 147.35 290.456 149.626 289.88 148.932Z" fill="#6B6B6B"/>
<path d="M243.817 99.8483C242.87 97.3556 243.037 97.6807 242.889 97.5073C243.836 100.022 243.743 99.7616 243.817 99.8483Z" fill="#6B6B6B"/>
<path d="M236.053 86.5801C236.814 88.9211 236.183 87.252 236.146 87.1436C236.034 86.7318 236.164 86.7101 236.053 86.5801Z" fill="#6B6B6B"/>
<path d="M223.442 61.8426C222.755 59.2198 223.163 60.5204 223.368 61.7126C223.386 61.7559 223.423 61.7993 223.442 61.8426Z" fill="#6B6B6B"/>
<path d="M238.282 93.475C238.468 93.6267 240.771 97.7234 238.227 93.3232L238.282 93.475Z" fill="#6B6B6B"/>
<path d="M238.226 93.3011C238.003 93.1494 237.799 92.9976 237.576 92.8459C237.093 91.1769 238.486 94.1031 238.226 93.3011Z" fill="#6B6B6B"/>
<path d="M239.285 95.209C240.437 97.7884 239.675 96.3361 239.397 95.339L239.285 95.209Z" fill="#6B6B6B"/>
<path d="M245.247 106.179C245.21 105.745 245.136 105.745 245.544 106.395C245.451 106.33 245.34 106.244 245.247 106.179Z" fill="#6B6B6B"/>
<path d="M217.498 48.1849C216.848 45.0419 217.368 47.1878 217.423 48.0548C217.442 48.0982 217.479 48.1415 217.498 48.1849Z" fill="#6B6B6B"/>
<path d="M268.204 134.731C267.369 134.536 267.647 134.731 267.016 133.777C268.279 134.839 268.26 134.839 268.204 134.731Z" fill="#6B6B6B"/>
<path d="M215.938 44.2614C215.344 41.0967 215.827 43.0692 215.864 44.1097C215.882 44.153 215.919 44.218 215.938 44.2614Z" fill="#6B6B6B"/>
<path d="M224.705 68.6938C224.835 69.1707 224.946 69.6475 225.076 70.1027C224.501 69.214 224.631 68.5854 224.705 68.6938Z" fill="#6B6B6B"/>
<path d="M225.188 72.7703C224.89 72.1634 224.89 72.2501 225.039 72.2717C225.076 72.4451 225.132 72.5969 225.188 72.7703Z" fill="#6B6B6B"/>
<path d="M220.192 68.283C220.155 68.7598 220.229 68.8249 219.932 67.9795C220.025 68.0879 220.099 68.1746 220.192 68.283Z" fill="#6B6B6B"/>
<path d="M287.669 160.683C288.393 161.138 288.319 161.029 288.133 161.159C287.985 161.008 287.818 160.834 287.669 160.683Z" fill="#6B6B6B"/>
<path d="M209.957 48.272C210.329 49.1173 210.236 48.7488 210.31 49.6376C209.938 48.8139 210.013 49.139 209.957 48.272Z" fill="#6B6B6B"/>
<path d="M202.268 6.27803C202.156 6.0396 202.045 5.82284 201.952 5.58441C202.138 4.00207 202.212 7.08004 202.268 6.27803Z" fill="#6B6B6B"/>
<path d="M204.701 27.3284C204.738 25.8761 205.036 27.5668 204.924 27.957C204.924 27.957 204.775 27.5452 204.701 27.3284Z" fill="#6B6B6B"/>
<path d="M205.239 34.3102C205.351 33.7467 205.276 33.725 205.462 34.6787C205.388 34.5487 205.314 34.4186 205.239 34.3102Z" fill="#6B6B6B"/>
<path d="M202.603 27.243C202.733 27.4814 202.863 27.6982 203.011 27.9149C202.974 29.6924 202.603 26.441 202.603 27.243Z" fill="#6B6B6B"/>
<path d="M202.602 27.0909C202.453 26.8524 202.323 26.614 202.175 26.3539C202.231 24.5331 202.602 27.7845 202.602 27.0909Z" fill="#6B6B6B"/>
<path d="M212.242 20.3705C212.372 20.5873 212.502 20.8041 212.632 21.0208C212.558 22.5165 212.242 19.4602 212.242 20.3705Z" fill="#6B6B6B"/>
<path d="M212.279 24.9231C211.982 21.7584 212.316 24.0778 212.224 24.7714L212.279 24.9231Z" fill="#6B6B6B"/>
</g>
</g>
<g clip-path="url(#clip2_94_302)">
<path d="M204.171 27.9321H95.913C93.8791 27.9321 92.2275 29.5283 92.2275 31.4939V238.647C92.2275 240.612 93.8791 242.208 95.913 242.208H204.171C206.205 242.208 207.857 240.612 207.857 238.647V31.4939C207.857 29.5283 206.205 27.9321 204.171 27.9321ZM204.145 175.741H95.9393V71.1678H204.145V175.744V175.741Z" fill="white"/>
<path d="M158.272 36.588H132.342C131.93 36.588 131.594 36.263 131.594 35.8648C131.594 35.4666 131.93 35.1416 132.342 35.1416H158.272C158.684 35.1416 159.02 35.4666 159.02 35.8648C159.02 36.263 158.684 36.588 158.272 36.588Z" fill="#F6EBF8"/>
<path d="M168.494 35.8648C168.494 35.0652 167.825 34.4185 166.998 34.4185C166.17 34.4185 165.501 35.0652 165.501 35.8648C165.501 36.6645 166.17 37.3112 166.998 37.3112C167.825 37.3112 168.494 36.6645 168.494 35.8648Z" fill="#F6EBF8"/>
<path d="M112.978 49.5449H101.21C100.027 49.5449 99.0674 50.4721 99.0674 51.6157V62.9894C99.0674 64.133 100.027 65.0602 101.21 65.0602H112.978C114.162 65.0602 115.121 64.133 115.121 62.9894V51.6157C115.121 50.4721 114.162 49.5449 112.978 49.5449Z" fill="#F6EBF8"/>
<path d="M112.668 65.0572C112.668 62.0816 110.173 59.6699 107.094 59.6699C104.015 59.6699 101.52 62.0816 101.52 65.0572" fill="white"/>
<path d="M107.094 58.6375C108.698 58.6375 109.998 57.3808 109.998 55.8307C109.998 54.2806 108.698 53.0239 107.094 53.0239C105.49 53.0239 104.189 54.2806 104.189 55.8307C104.189 57.3808 105.49 58.6375 107.094 58.6375Z" fill="white"/>
<path d="M170.716 55.8627H123.376C122.683 55.8627 122.123 55.3211 122.123 54.652C122.123 53.983 122.683 53.4414 123.376 53.4414H170.716C171.408 53.4414 171.968 53.983 171.968 54.652C171.968 55.3211 171.408 55.8627 170.716 55.8627Z" fill="#F6EBF8"/>
<path d="M191.365 61.1576H123.376C122.683 61.1576 122.123 60.616 122.123 59.947C122.123 59.2779 122.683 58.7363 123.376 58.7363H191.365C192.057 58.7363 192.617 59.2779 192.617 59.947C192.617 60.616 192.057 61.1576 191.365 61.1576Z" fill="#F6EBF8"/>
<path d="M138.685 184.678H133.727C133.137 184.678 132.659 185.14 132.659 185.71V190.371L134.377 189.211H138.688C139.278 189.211 139.756 188.749 139.756 188.179V185.71C139.756 185.14 139.278 184.678 138.688 184.678H138.685Z" stroke="#F6EBF8" stroke-linecap="round" stroke-linejoin="round"/>
<path d="M185.28 186.408L182.435 183.658V185.114C180.216 185.114 178.42 186.854 178.42 188.995C178.42 189.418 178.492 189.826 178.621 190.208C179.148 188.66 180.658 187.539 182.435 187.539V189.157L185.28 186.408Z" stroke="#F6EBF8" stroke-linecap="round" stroke-linejoin="round"/>
<path d="M102.269 189.444H104.497C104.781 189.444 105.028 189.24 105.045 188.966C105.058 188.749 104.932 188.558 104.745 188.472C105.008 188.443 105.213 188.227 105.213 187.966C105.213 187.762 105.091 187.586 104.913 187.504C105.176 187.475 105.381 187.258 105.381 186.997C105.381 186.793 105.259 186.618 105.081 186.535C105.345 186.506 105.549 186.29 105.549 186.029C105.549 185.745 105.312 185.519 105.021 185.519H102.773C102.773 185.519 103.126 184.761 103.175 184.037C103.192 183.811 103.03 183.607 102.8 183.56C102.569 183.512 102.338 183.636 102.256 183.849C102.084 184.286 101.751 184.984 101.273 185.305C100.914 185.547 100.697 185.818 100.575 186.013C100.486 186.156 100.439 186.318 100.439 186.484V188.673C100.439 188.87 100.555 189.052 100.736 189.141C101.046 189.294 101.587 189.485 102.276 189.453L102.269 189.444Z" stroke="#F6EBF8" stroke-linecap="round" stroke-linejoin="round"/>
<path d="M99.5428 185.837H98.722C98.58 185.837 98.4648 185.949 98.4648 186.086V188.979C98.4648 189.116 98.58 189.227 98.722 189.227H99.5428C99.6848 189.227 99.7999 189.116 99.7999 188.979V186.086C99.7999 185.949 99.6848 185.837 99.5428 185.837Z" fill="#F6EBF8"/>
<path d="M126.976 180.691V182.915H128.337V183.463H126.369V180.691H126.979H126.976Z" fill="#F6EBF8"/>
<path d="M129.25 180.691V183.463H128.641V180.691H129.25Z" fill="#F6EBF8"/>
<path d="M130.714 182.405L130.341 182.842V183.463H129.731V180.691H130.341V181.998L131.432 180.691H132.177L131.106 181.947L132.233 183.463H131.475L130.714 182.405Z" fill="#F6EBF8"/>
<path d="M132.494 180.691H134.521V181.23H133.104V181.794H134.403V182.332H133.104V182.928H134.551V183.466H132.494V180.695V180.691Z" fill="#F6EBF8"/>
<path d="M160.691 183.342C160.47 183.215 160.296 183.043 160.17 182.823C160.045 182.603 159.982 182.354 159.982 182.077C159.982 181.8 160.045 181.552 160.17 181.332C160.296 181.112 160.47 180.937 160.691 180.812C160.912 180.688 161.163 180.625 161.439 180.625C161.683 180.625 161.901 180.669 162.092 180.762C162.283 180.851 162.442 180.978 162.56 181.134C162.682 181.294 162.758 181.472 162.798 181.669H162.181C162.148 181.532 162.066 181.421 161.931 181.329C161.799 181.239 161.637 181.192 161.446 181.192C161.285 181.192 161.136 181.23 161.004 181.306C160.872 181.383 160.77 181.488 160.694 181.622C160.619 181.756 160.582 181.908 160.582 182.08C160.582 182.253 160.619 182.399 160.694 182.536C160.77 182.673 160.872 182.778 161.004 182.855C161.136 182.931 161.285 182.969 161.446 182.969C161.571 182.969 161.69 182.944 161.799 182.893C161.908 182.842 162 182.778 162.072 182.699C162.145 182.619 162.188 182.539 162.204 182.453H162.821C162.791 182.641 162.715 182.82 162.59 182.985C162.465 183.151 162.303 183.285 162.099 183.383C161.894 183.482 161.673 183.533 161.433 183.533C161.156 183.533 160.909 183.469 160.685 183.345L160.691 183.342Z" fill="#F6EBF8"/>
<path d="M163.773 183.342C163.549 183.215 163.374 183.043 163.246 182.823C163.117 182.603 163.055 182.354 163.055 182.077C163.055 181.8 163.117 181.552 163.246 181.332C163.374 181.112 163.549 180.937 163.773 180.812C163.997 180.688 164.248 180.625 164.528 180.625C164.808 180.625 165.059 180.688 165.283 180.812C165.507 180.94 165.682 181.112 165.811 181.332C165.939 181.552 166.002 181.8 166.002 182.077C166.002 182.354 165.939 182.603 165.811 182.823C165.682 183.043 165.507 183.218 165.283 183.342C165.059 183.466 164.808 183.53 164.528 183.53C164.248 183.53 163.997 183.466 163.773 183.342ZM164.967 182.858C165.098 182.781 165.201 182.673 165.276 182.536C165.352 182.399 165.389 182.246 165.389 182.074C165.389 181.902 165.352 181.749 165.276 181.612C165.201 181.475 165.098 181.37 164.967 181.294C164.835 181.217 164.686 181.179 164.525 181.179C164.363 181.179 164.215 181.217 164.083 181.294C163.951 181.37 163.849 181.478 163.773 181.612C163.697 181.749 163.661 181.902 163.661 182.074C163.661 182.246 163.697 182.399 163.773 182.536C163.849 182.673 163.951 182.781 164.083 182.858C164.215 182.934 164.363 182.973 164.525 182.973C164.686 182.973 164.835 182.934 164.967 182.858Z" fill="#F6EBF8"/>
<path d="M166.358 180.691H166.843L167.782 182.243L168.722 180.691H169.206V183.463H168.596V181.943L167.964 183.008H167.594L166.961 181.943V183.463H166.352V180.691H166.358Z" fill="#F6EBF8"/>
<path d="M169.687 180.691H170.172L171.111 182.243L172.051 180.691H172.535V183.463H171.926V181.943L171.293 183.008H170.923L170.291 181.943V183.463H169.681V180.691H169.687Z" fill="#F6EBF8"/>
<path d="M173.017 180.691H175.044V181.23H173.626V181.794H174.925V182.332H173.626V182.928H175.074V183.466H173.017V180.695V180.691Z" fill="#F6EBF8"/>
<path d="M175.479 180.691H175.987L177.348 182.358V180.656H177.955V183.428H177.447L176.085 181.762V183.463H175.476V180.691H175.479Z" fill="#F6EBF8"/>
<path d="M180.665 181.239H179.778V183.463H179.168V181.239H178.281V180.691H180.661V181.239H180.665Z" fill="#F6EBF8"/>
<path d="M122.126 127.997H124.549L129.246 135.752L133.944 127.997H136.367V141.856H133.324V134.254L130.166 139.578H128.327L125.169 134.254V141.856H122.126V127.997Z" fill="white"/>
<path d="M141.756 141.25C140.636 140.619 139.759 139.753 139.123 138.647C138.486 137.542 138.17 136.299 138.17 134.914C138.17 133.528 138.486 132.285 139.123 131.18C139.759 130.074 140.636 129.208 141.756 128.577C142.877 127.949 144.133 127.634 145.524 127.634C146.915 127.634 148.175 127.949 149.292 128.577C150.413 129.204 151.29 130.074 151.926 131.18C152.562 132.285 152.879 133.531 152.879 134.914C152.879 136.296 152.562 137.542 151.926 138.647C151.29 139.753 150.413 140.619 149.292 141.25C148.171 141.878 146.915 142.193 145.524 142.193C144.133 142.193 142.874 141.878 141.756 141.25ZM147.733 138.826C148.389 138.44 148.906 137.905 149.279 137.22C149.651 136.535 149.839 135.767 149.839 134.917C149.839 134.066 149.651 133.286 149.279 132.604C148.906 131.925 148.389 131.39 147.733 131.004C147.074 130.619 146.338 130.428 145.528 130.428C144.717 130.428 143.978 130.622 143.322 131.004C142.666 131.39 142.149 131.922 141.776 132.604C141.404 133.282 141.216 134.053 141.216 134.917C141.216 135.78 141.404 136.535 141.776 137.22C142.149 137.905 142.666 138.44 143.322 138.826C143.978 139.211 144.717 139.406 145.528 139.406C146.338 139.406 147.077 139.214 147.733 138.826Z" fill="white"/>
<path d="M162.791 141.856L160.151 137.485H157.728V141.856H154.686V127.997H160.168C161.305 127.997 162.284 128.191 163.108 128.583C163.932 128.975 164.562 129.526 164.997 130.24C165.432 130.954 165.65 131.788 165.65 132.741C165.65 133.693 165.435 134.525 165.007 135.232C164.578 135.939 163.962 136.487 163.161 136.873L166.319 141.856H162.791ZM157.728 134.748H160.036C160.85 134.748 161.483 134.576 161.931 134.229C162.383 133.881 162.607 133.388 162.607 132.741C162.607 132.094 162.383 131.6 161.931 131.253C161.48 130.909 160.847 130.734 160.036 130.734H157.728V134.748Z" fill="white"/>
<path d="M167.723 127.997H177.853V130.683H170.765V133.505H177.266V136.191H170.765V139.167H178.001V141.852H167.723V127.994V127.997Z" fill="white"/>
<path d="M125.166 148.399V159.521H131.97V162.258H122.123V148.399H125.166Z" fill="white"/>
<path d="M136.551 148.399V162.258H133.509V148.399H136.551Z" fill="white"/>
<path d="M143.854 156.969L141.998 159.145V162.258H138.955V148.399H141.998V154.93L147.447 148.399H151.175L145.825 154.676L151.458 162.258H147.664L143.854 156.969Z" fill="white"/>
<path d="M152.764 148.399H162.894V151.085H155.806V153.908H162.307V156.593H155.806V159.569H163.045V162.255H152.767V148.396L152.764 148.399Z" fill="white"/>
<path d="M173.105 148.638C173.92 149.024 174.569 149.559 175.053 150.244C175.538 150.929 175.802 151.709 175.848 152.582H172.706C172.617 151.971 172.354 151.493 171.922 151.155C171.487 150.814 170.907 150.645 170.185 150.645C169.463 150.645 168.952 150.773 168.563 151.028C168.174 151.282 167.979 151.627 167.979 152.057C167.979 152.398 168.101 152.675 168.349 152.891C168.592 153.108 168.968 153.296 169.476 153.462C169.984 153.627 170.722 153.809 171.691 154.013C173.194 154.331 174.272 154.854 174.925 155.587C175.578 156.316 175.904 157.234 175.904 158.333C175.904 159.193 175.663 159.948 175.175 160.595C174.691 161.242 174.032 161.735 173.194 162.083C172.357 162.427 171.427 162.602 170.402 162.602C169.288 162.602 168.289 162.408 167.402 162.016C166.516 161.624 165.814 161.066 165.296 160.34C164.778 159.614 164.495 158.763 164.452 157.788H167.577C167.666 158.457 167.983 158.992 168.52 159.394C169.061 159.795 169.759 159.996 170.62 159.996C171.243 159.996 171.76 159.856 172.166 159.572C172.571 159.289 172.776 158.922 172.776 158.467C172.776 158.103 172.667 157.804 172.449 157.565C172.232 157.326 171.886 157.122 171.414 156.953C170.94 156.784 170.28 156.619 169.433 156.46C167.907 156.166 166.763 155.673 166.008 154.981C165.25 154.29 164.871 153.315 164.871 152.057C164.871 151.241 165.115 150.531 165.599 149.932C166.084 149.33 166.743 148.868 167.58 148.546C168.418 148.224 169.351 148.062 170.389 148.062C171.427 148.062 172.301 148.256 173.115 148.641L173.105 148.638Z" fill="white"/>
<g clip-path="url(#clip3_94_302)">
<path d="M186.273 97.5706C186.273 97.5706 186.266 99.7157 181.535 100.154C181.535 100.154 181.437 94.6767 149.923 93.6311C118.416 94.6159 118.311 100.1 118.311 100.1C113.58 99.6415 113.58 97.4964 113.58 97.4964C113.58 97.4964 116.012 90.1436 149.986 90.1436C183.961 90.1436 186.273 97.5638 186.273 97.5638V97.5706Z" fill="white"/>
<path d="M182.649 108.364L182.014 105.193C181.429 104.971 180.816 104.775 180.195 104.566V99.8574C179.822 99.6415 179.406 99.4324 178.947 99.2233V104.195C178.151 103.966 177.312 103.736 176.438 103.527V98.3126C176.036 98.1912 175.627 98.0698 175.197 97.9484V103.23C173.984 102.96 172.729 102.704 171.418 102.475V97.0984C171.009 97.0242 170.6 96.9567 170.177 96.8825V102.266C168.831 102.043 167.442 101.847 166.011 101.672C166.011 101.672 165.799 101.632 165.348 101.564V96.2485L163.882 96.0933V101.389C162.634 101.247 160.843 101.085 158.481 100.957V95.4862L157.008 95.3783V100.889C155.309 100.815 153.356 100.755 151.149 100.734H150.776V95.2568H149.316V100.734H149.154C146.94 100.755 144.987 100.815 143.288 100.889V95.3783L141.822 95.4862V100.957C139.46 101.085 137.677 101.254 136.436 101.389V96.0933L134.962 96.2485V101.564C134.511 101.632 134.293 101.672 134.293 101.672C132.854 101.847 131.466 102.043 130.119 102.266V96.8825C129.703 96.9567 129.287 97.0242 128.878 97.0984V102.475C127.574 102.704 126.305 102.967 125.099 103.23V97.9484C124.676 98.0698 124.26 98.1912 123.859 98.3126V103.527C122.984 103.736 122.145 103.966 121.342 104.195V99.2233C120.883 99.4324 120.46 99.6415 120.101 99.8574V104.566C119.473 104.775 118.867 104.971 118.282 105.193L117.647 108.364C117.647 108.364 128.942 104.741 149.979 104.741C171.016 104.741 182.635 108.364 182.635 108.364H182.649Z" fill="white"/>
<path d="M159.306 88.8013L156.775 82.3389C156.775 82.3389 155.21 81.3001 149.986 81.2461H149.902C144.988 81.2461 143.112 82.3254 143.112 82.3254L140.567 88.7878C140.567 88.7878 145.185 88.4033 150.007 88.4033C154.83 88.4033 159.299 88.7945 159.299 88.7945L159.306 88.8013Z" fill="white"/>
<path d="M150.663 116.87V112.836C152.827 112.87 154.822 113.065 156.514 113.308V116.87H157.804V113.511C160.321 113.942 161.901 114.415 161.901 114.415V116.641L186.97 116.661L185.011 110.225C179.892 109.463 170.417 108.856 163.05 108.526L163.021 107.979C160.505 107.021 155.605 106.36 149.965 106.347C144.325 106.36 139.418 107.021 136.908 107.979L136.88 108.526C129.506 108.856 120.037 109.463 114.919 110.225L112.952 116.661L138.022 116.641V114.415C138.022 114.415 139.601 113.942 142.118 113.511V116.87H143.408V113.308C145.1 113.065 147.095 112.87 149.26 112.836V116.87H150.663Z" fill="white"/>
</g>
</g>
</g>
<defs>
<clipPath id="clip0_94_302">
<rect width="294" height="267" fill="white"/>
</clipPath>
<clipPath id="clip1_94_302">
<rect width="300" height="266" fill="white" transform="translate(0.410156 0.863281)"/>
</clipPath>
<clipPath id="clip2_94_302">
<rect width="116" height="215" fill="white" transform="translate(92 27.8555)"/>
</clipPath>
<clipPath id="clip3_94_302">
<rect width="74.0183" height="35.624" fill="white" transform="translate(112.952 81.2461)"/>
</clipPath>
</defs>
</svg>
